/* XPM */
static char *result[] = {
/* columns rows colors chars-per-pixel */
"64 64 246 2 ",
"   c #1E0A00",
".  c #240E00",
"X  c #2B0F08",
"o  c #281102",
"O  c #35180A",
"+  c #3F1712",
"@  c #372212",
"#  c #4C1A15",
"$  c #461813",
"%  c #491A14",
"&  c #6F0801",
"*  c #77190B",
"=  c #4B2C13",
"-  c #47281D",
";  c #55361C",
":  c #522719",
">  c #783F1B",
",  c #4E3928",
"<  c #543B27",
"1  c #5A2C24",
"2  c #613E27",
"3  c #6C372A",
"4  c #5A432E",
"5  c #5C4633",
"6  c #5E4A3A",
"7  c #674837",
"8  c #744A39",
"9  c #715134",
"0  c #7C5538",
"q  c #724A2C",
"w  c #7F411C",
"e  c #6A5543",
"r  c #795244",
"t  c #795A4C",
"y  c #614F42",
"u  c #7E6B5C",
"i  c #891C07",
"p  c #941E02",
"a  c #87280C",
"s  c #99330B",
"d  c #872B15",
"f  c #943718",
"g  c #922208",
"h  c #A92E02",
"j  c #A62B00",
"k  c #AD3206",
"l  c #B33305",
"z  c #B73808",
"x  c #A73C1B",
"c  c #B73C14",
"v  c #8B3928",
"b  c #943D26",
"n  c #83342D",
"m  c #C23D0B",
"M  c #9B461A",
"N  c #80431F",
"B  c #A34516",
"V  c #B14C17",
"C  c #964826",
"Z  c #944737",
"A  c #995238",
"S  c #8A522F",
"D  c #BB5628",
"F  c #AA5938",
"G  c #AB572C",
"H  c #B66736",
"J  c #B5733A",
"K  c #AE6834",
"L  c #98673A",
"P  c #C84517",
"I  c #D84B15",
"U  c #C6551A",
"Y  c #DD531C",
"T  c #E65517",
"R  c #EA5416",
"E  c #EA681D",
"W  c #ED721C",
"Q  c #CE5928",
"!  c #C56629",
"~  c #C8753B",
"^  c #D26C2C",
"/  c #E67529",
"(  c #F67624",
")  c #ED7330",
"_  c #D26F1A",
"`  c #815B41",
"'  c #875B49",
"]  c #945A49",
"[  c #A65E43",
"{  c #B45F41",
"}  c #8B6547",
"|  c #926749",
" . c #97754A",
".. c #8B7159",
"X. c #977757",
"o. c #956759",
"O. c #BA6746",
"+. c #A67849",
"@. c #B67747",
"#. c #A67B53",
"$. c #AE6F59",
"%. c #937863",
"&. c #966F67",
"*. c #AC7D67",
"=. c #C77746",
"-. c #C57753",
";. c #C77141",
":. c #D17D51",
">. c #BC813D",
",. c #D78439",
"<. c #D18C32",
"1. c #EF942F",
"2. c #F5A928",
"3. c #FDBA26",
"4. c #F8B538",
"5. c #F2AA34",
"6. c #F69D18",
"7. c #FCC439",
"8. c #FCC128",
"9. c #AA8554",
"0. c #A9865A",
"q. c #B9875B",
"w. c #B98345",
"e. c #9E8273",
"r. c #A98967",
"t. c #BB8763",
"y. c #B59367",
"u. c #B69975",
"i. c #B08E77",
"p. c #BEA27B",
"a. c #C68A4B",
"s. c #DC8747",
"d. c #CA865B",
"f. c #C9975B",
"g. c #D4975B",
"h. c #D3924B",
"j. c #EC9149",
"k. c #FAB847",
"l. c #F2AB53",
"z. c #CA8764",
"x. c #D18E65",
"c. c #C79869",
"v. c #D39567",
"b. c #C89B77",
"n. c #D49875",
"m. c #DAA969",
"M. c #C9A478",
"N. c #DAA37C",
"B. c #DCAD7C",
"V. c #D7A877",
"C. c #DBB17B",
"Z. c #E8B877",
"A. c #F4B974",
"S. c #EFB16A",
"D. c #DFA064",
"F. c #FDC748",
"G. c #FCD358",
"H. c #FBC856",
"J. c #FCCB7A",
"K. c #FCD775",
"L. c #F9C966",
"P. c #B29B84",
"I. c #B9A388",
"U. c #BCA796",
"Y. c #BAAAA6",
"T. c #C69D83",
"R. c #D49A84",
"E. c #C4A984",
"W. c #CBAC84",
"Q. c #C8A786",
"!. c #DAA583",
"~. c #DBAA88",
"^. c #D9B68A",
"/. c #C9AA97",
"(. c #CCB596",
"). c #D2BC9B",
"_. c #D8BA97",
"`. c #CEAC90",
"'. c #E5BA89",
"]. c #E2BB97",
"[. c #F2BD99",
"{. c #E3AC9D",
"}. c #CBBAA8",
"|. c #D6BAA7",
" X c #D6BDB6",
".X c #E9B8A8",
"XX c #F1BEA4",
"oX c #DBC199",
"OX c #ECC38B",
"+X c #F5C888",
"@X c #FBD68A",
"#X c #E6C59A",
"$X c #F3CA98",
"%X c #FBD794",
"&X c #FFE297",
"*X c #D9C3A7",
"=X c #D8C9B7",
"-X c #D4C9BA",
";X c #E4C4A4",
":X c #E7CAA8",
">X c #F3C9AA",
",X c #F9D9A8",
"<X c #E9CBB4",
"1X c #F4CCBD",
"2X c #F3C6B7",
"3X c #ECDABC",
"4X c #EAD4B7",
"5X c #F2D6BB",
"6X c #EDD2A7",
"7X c #FDE7B9",
"8X c #F5E5B1",
"9X c #D9CBC8",
"0X c #D7CFC9",
"qX c #E1CDCA",
"wX c #F4CCC2",
"eX c #ECDBC3",
"rX c #E8D6C6",
"tX c #F2DCC3",
"yX c #F5D3CB",
"uX c #F5D8C9",
"iX c #EBDAD3",
"pX c #F4DAD1",
"aX c #EDE3C9",
"sX c #F6E6C6",
"dX c #ECE5DB",
"fX c #EDE3D7",
"gX c #F2E3D5",
"hX c #F5E9D3",
"jX c #FAECD6",
"kX c #F3EBDD",
"lX c #FBECDA",
"zX c #F6E3D8",
"xX c #FAF1D4",
"cX c #FCF4DE",
"vX c #FFF4C6",
"bX c #FAEDE4",
"nX c #F7EAE5",
"mX c #FDF6E3",
"MX c #FEF9E5",
"NX c #FBF5EA",
"BX c #FEF9EB",
"VX c #FDF3F1",
"CX c #FEFCF4",
"ZX c #FFFEFD",
"AX c #ECE6E1",
"SX c None",
/* pixels */
"SXSXSXSXSXSXSXSXSXSXSXSXSXSXSXSXSXSXSXSXSXSXSXSXSXSXSXSXSXSXSXSXSXSXSXSXSXSXSXSXSXSXSXSXSXSXSXSXSXSXSXSXSXSXSXSXSXSXSXSXSXSXSXSX",
"SXSXSXSXSXSXSXSXSXSXSXSXSXSXSXSXSXSXSXSXSXSXSXSXSXSXSXSXSXSXSXSXSXSXSXSXSXSXSXSXSXSXSXSXSXSXSXSXSXSXSXSXSXSXSXSXSXSXSXSXSXSXSXSX",
"SXSXSXSXSXSXSXSXSXSXSXSXSXSXSXSXSXSXSXSXSXSXSXSXSXSXSXSXSXSXSXSXSXSXSXSXSXSXSXSXSXSXSXSXSXSXSXSXSXSXSXSXSXSXSXSXSXSXSXSXSXSXSXSX",
"SXSXSXSXSXSXSXSXSXSXSXSXSXSXSXSXSXSXSXSXSXSXSXSXSXSXSXSXSXSXSXSXSXSXSXSXSXSXSXSXSXSXSXSXSXSXSXSXSXSXSXSXSXSXSXSXSXSXSXSXSXSXSXSX",
"SXSXSXSXSXSXSXSXSXSXSXSXSXSXSXSXSXSXSXSXSXSXSXSXSXSXSXSXSXSXSXSXSXSXSXSXSXSXSXSXSXSXSXSXSXSXSXSXSXSXSXSXSXSXSXSXSXSXSXSXSXSXSXSX",
"SXSXSXSXSXSXSXSXSXSXSXSXSXSXSXSXSXSXSXSXSXSXSXSXSXSXSXSXSXSXSXSXSXSXSXSXSXSXSXSXSXSXSXSXSXSXSXSXSXSXSXSXSXSXSXSXSXSXSXSXSXSXSXSX",
"SXSXSXSXSXSXSXSXSXSXSXSXSXSXSXSXSXSXSXSXSXSXSXSXSXSXSXSX9.9.9.9.9.9.9.9.SXSXSXSXSXSXSXSXSXSXSXSXSXSXSXSXSXSXSXSXSXSXSXSXSXSXSXSX",
"SXSXSXSXSXSXSXSXSXSXSXSXSXSXSXSXSXSXSXSXSXSXSXSXSXSXSXSXE.E.E.E.E.E.E.E.SXSXSXSXSXSXSXSXSXSXSXSXSXSXSXSXSXSXSXSXSXSXSXSXSXSXSXSX",
"SXSXSXSXSXSXSXSXSXSXSXSXSXSXSXSXSXSXSXSXSXSXr } X.9.9.M.qXdXdXAXkXdXkXrXp.9.9.+.} } SXSXSXSXSXSXSXSXSXSXSXSXSXSXSXSXSXSXSXSXSXSX",
"SXSXSXSXSXSXSXSXSXSXSXSXSXSXSXSXSXSXSXSXSXSX} X.u.M.I.}.fXbXiXqX0X0X9X-X(.I.E.u.X.} SXSXSXSXSXSXSXSXSXSXSXSXSXSXSXSXSXSXSXSXSXSX",
"SXSXSXSXSXSXSXSXSXSXSXSXSXSXSXSX} 0 t } 9.9.+.u.=XfXdXpXuX.X-.[ ' t t %.9XkXAX=Xu. .9.#.} S ` ` SXSXSXSXSXSXSXSXSXSXSXSXSXSXSXSX",
"SXSXSXSXSXSXSXSXSXSXSXSXSXSXSXSXX.X. .0.u.I.E.).gXBXVXpX{.z.H C S q > | /.rXqX-X(.E.E.u.X. .X.X.SXSXSXSXSXSXSXSXSXSXSXSXSXSXSXSX",
"SXSXSXSXSXSXSXSXSXSXSXSX= ; q  .M.W.u.M.4XAXAXiXyXwXwX{.@.H d.m.n.c.w.J [ | ' e.-XnXnX=Xu.0.M.p.X.9 < = SXSXSXSXSXSXSXSXSXSXSXSX",
"SXSXSXSXSXSXSXSXSXSXSXSX9 } 9.y.^.#XoX#XrXpXzXpX1X2X2XR.G B v.OX$XOXJ.g.H M w } /.qX9X=X`.W.oX(.u.%.} 9 SXSXSXSXSXSXSXSXSXSXSXSX",
"SXSXSXSXSXSXSXSXSXSX= 9 r.(.=X4X_.^.3X4X~.n.v.~.1XjXlX.XK B >.D.'.$X6X#XZ.v.w.J J L ' %.*X<XW.E.=X=X(.r.9 = SXSXSXSXSXSXSXSXSXSX",
"SXSXSXSXSXSXSXSXSXSX9 X.(.sXhXaXoX#X<X:Xn.x.x.~.tXBXBX;XG a B J g.B.OX#X$XOXZ.g.O.A S | /.(.0.r.=XhXsX).X.9 SXSXSXSXSXSXSXSXSXSX",
"SXSXSXSXSXSXSXSX= 9 r.).aXhX:X*X3X<X!.N.;X5X4X5XjXMXBX|.Z & * a B K a.m.OX$X$X6X:X_.M.q.O.G q S r.*XhXaX(.r.9 = SXSXSXSXSXSXSXSX",
"SXSXSXSXSXSXSXSX9 X.).sXhXeXoX#XtX5XN.!.tXMXMXMXMXjX4XQ.A a a a s B V J f.C.oX6XsXsX,XZ.@.C N q L q.(.qXaX).X.9 SXSXSXSXSXSXSXSX",
"SXSXSXSXSXSX` X.u.(.aXhX:XoX3XuX1X2X5XtXxXmXmXmXMX4Xz.H =.,.<._ U B a a M H a.m.$X,X8X6XB.v.w.J C C S e.3XhX(.u.X.0 SXSXSXSXSXSX",
"SXSXSXSXSXSX} r.oXsXhXaX*X#XeXsX1X1XjXmXmXcXmXjX4X`.O.J l.k.F.k.s.O.b a s B G J x.B.oX$X$XOXS.g.H C w } U.0XaXoXr.} SXSXSXSXSXSX",
"SXSXSXSXSXSX#.u.3XhX*X;XpXpXwX1XuXhXcXmXcXmXmX4X-.$.n.A.F.F.J.@X$X'.g.~ Q x i a M K a.m.OX$XOXZ.C.g.w.9.` e.rXaXp. .SXSXSXSXSXSX",
"SXSXSXSXSXSXy.W.4XaX#X*XzXnXyXwXlXmXcXcXcXcXcX|.[ x D.A.k.k.J.,X,X%XS.l.s.O.b d s B V J f.m.Z.'.OXJ.l.w.w } /.*XW.y.SXSXSXSXSXSX",
"SXSXSXSXo 5 u.oX^.#X3XuXwXyXnXbXmXcXcXcXcXxXhX/.n g ^ ) ( 1.S.+X,X@Xk.k.A.Z.h.~ D x a d M K ,.D.S.S.<.>.w.9.L w.W.p.6 . SXSXSXSX",
"SXSXSXSX= 9 y.oXoXoX<X5X1XyXVXZXBXmXmXmXMXfX|.r.d p m R R E ) S.J.K.4.F.@X,X@XS.s.! f d s B G J ,.h.<.h.f.w.B B c.p.9 = SXSXSXSX",
"SXSXSXSX}  .0.M.3X4XV.~.yXVXZXZXZXCXmXmXCX9X&.d g j k m I Y ) 1.k.F.7.F.@X8X,XJ.k.5.h.=.D B a a B K a.q.f.w.M M w.y. .} SXSXSXSX",
"SXSXSXSX#.y.p.(.:X:Xn.~.kXZXZXZXZXCXMXBXCX Xn & p k j h c P I E 2.8.8.7.K.$X+XA.4.5.<.j.~ D f a s M K J w.J G K y.p.y.9.SXSXSXSX",
"SXSXo ;  .M.=X4X!.N.;XgXVXZXZXZXBXBXCXCXnX/.n & p j j h k k z I 1.2.3.3.l.l.j.) / Q U U / ,.,.~ D B d > N G q.^.qX=XM.} ; o SXSX",
"SXSXO 4 X.).zXpX~.!.tXBXZXZXZXCXmXNXZXnX X*.v i h c l l k k k P j.l.2.6.1.) R R P c h l U ,.S.A.s.D * & f J ^.aXbXfX).9.4 O SXSX",
"SXSX$ q I.5XwXwX1XtXjXMXZXZXZXCXmXBXZXqXo.v x m I I P P P P P ;.Z.K.F.2./ Y m l l h j j l ~ $X8XA.~ * * +.^.aXnXyX1X5XI.7 $ SXSX",
"SXSX1 ' oXsX>XXXhXmXmXMXCXZXZXZXBXBXCX XZ i V T E R Y Y P Q Q ) A.@XG.k.s.Q c l l l m l z ;.>X5Xm.H C ] E.aXCXbXwX>XvX*X} 1 SXSX",
"SXSXA *.:X7X#X>XsXmXcXMXCXZXZXZXZXCXkX|.{ x ! / E R R R Q Q ) 1.k.G.@X@X[.D.Q P I R I T / l.%X].A C #.W.4XmXCXVX2X2XsX:Xr.Z SXSX",
"SXSXy.Q.6X3X>X2XjXcXcXmXCXZXZXZXZXAX}.u.;.Q ,.1.( ( ) ) Y ) D.S.H.G.K.%X%XA.:.E ( ( ( ) / s.n.t.Z A Q.8XjXBXCXVXyX1X5X6XM.r.8 SX",
"# r /.:X$X>XpXbXcXcXcXmXCXZXZXZXVXqXo.C D 1.5.3.1.j.A.S.1.1.A.%X%XJ.G.F.l.k.1.6.3.2.5./ x d d Z $.W.4XxXcXMXCXZXVXpX>X>X6XQ.r $ ",
"# e oX7X[.XXbXZXBXcXcXNXCXZXZXZXZX X] a _ 5.3.4.l.A.,X@X4.5.L.&X8X,XK.G.L.A.H.4.5.1.,.! b 3 n o.(.3XxXmXmXMXZXZXZXbXXX[.7X).r # ",
"# r ).7X[.XXbXZXMXcXcXNXZXZXZXCXnX|.{ V <.8.3.F.J.,X8X@X4.3.7.K.7XvX7X7X7X5X%XJ.s.D s b $.M.}.qXkXNXmXmXcXmXZXZXZXbX>X[.7X).r # ",
"# r |.7X,X2XzXNXmXmXbXNXCXZXZXnX|.i.@._ 1.3.2.1.S.[.$XJ.7.3.8.F.&X7XcXvX5X;X~.n.@.F v | W.aXCXZXZXCXNXcXmXmXbXbXbXpXXXXX7X}.r # ",
"# r ).vXvX5X1XwXjXmXcXmXCXZXZXiXo.b D ,.( ( E ! U ~ D.S.7.8.3.8.F.K.8X>Xn.{ b A t.M.M.oXaXVXZXZXZXZXMXmXmXjXyX2XwX.X[.>XsX*Xr # ",
"# 8 i.*X*X*X<X2X4XtXjXBXZXCXpX/.Z k _ ( E T P c h V ^ l.G.G.F.4.5.5.m.c.=.F v ] W.3XsXxXCXZXZXZXZXCXmXcXjXuXwXwXwX.XR.b.(.u.8 # ",
": 1 8 t o.i.:X>XN.~.tXCXZXdXR.=._ W W E Y P z k j k V ^ $X7X&XA.<.D b A q.M.M._.aXNXCXVXMXBXZXZXZXZXBXjXwXwXnXVXVX9X&.3 r 8 1 # ",
"# # $ 1 t i.).#XN.N.;XtXrX.Xz.=.k.5.E I P c k h k l l D R.|.].V.-.F v [ W.3XsXcXCXZXZXCXBXNXCXZXZXCXkXuX1X1XyXiX9X/.&.3 - $ % # ",
"SXSXO 2 P.|.c.M.:X:X!.x.-.z.W.OX@XS.Q l k k h k c P Y P Z Z { d.c.M.M.).aXNXCXCXZXZXBXNXCXZXZXZXZXBXyX1XpXwX/.*.' &.U.P.< X X SX",
"SXSXo 6 P.(.u.p.;X;Xd.H ! :.L.&X%XS._ V z z m z c m Y P f b F d.oX8X7XxXCXZXZXZXZXCXNXBXCXZXZXZXVXzX1X2X4X=XT.*.u &.Y.P.5   SXSX",
"SXSXSXSX5 u }.<XM.@.H H 1.5.7.F.F.4.6.W T T R m g i x ! -.b.C.#XfXNXCXCXZXZXZXZXBXNXCXCXZXZXZXVXyXwXsX<XQ.T.<XiX9XY.u , @ SXSXSX",
"SXSXSXSX. 6 -XkX`.O.G ! 5.G.G.G.H.F.k.4.W T I m f v { f.#X3XaXxXCXZXZXZXCXZXCXCXNXBXZXZXZXVXVXnXwX1X<X_.b./.AXZXZX X6   SXSXSXSX",
"SXSXSXSX. 6 *XmXsX~.O.~ Z.&X&X7X7X8X%XA.~ c p f +.b.^.:XhXNXNXCXCXZXZXZXNXNXmXBXCXCXZXZXZXVXyXyXbXiXT.T.*XdXCXZXCX}.6 X SXSXSXSX",
"SXSXSXSXo 7 I.eXcX<X-.;.'.7XxXhX5X.X^.n.-.F Z o.(.3X3XxXCXZXZXZXZXZXZXCXBXNXmXBXZXZXZXZXVXnXyXwXiX<XT.`.fXZXZXVXeXI.5 . SXSXSXSX",
"SXSXSXSXSXSX..I.iX<X;.;.'.7XvX>Xv.O.v ] t.`. XqXdXBXBXCXZXZXZXZXZXZXZXZXCXCXCXZXZXZXZXVXyXwXnXiX/.T.|.eXNXZXZXfXI..., SXSXSXSXSX",
"SXSXSXSXSXSX7 ..=XwXn.d.B.'.~.n.:.F d C W.eXCXVXZXZXCXZXCXZXCXCXCXCXCXZXZXZXZXNXkXpXiXyX1XwXpX=XT.T.5XmXZXZXZX9X%.4 SXSXSXSXSXSX",
"SXSXSXSXSXSX@ 9 *XxXuX].d.F b [ `.{.O.-.;XcXMXBXBXBXMXMXMXMXMXNXMXmXBXMXBXBXBXpX{.x.v.~.1XrXQ.T._.eXlXCXZXZXBX}.e @ SXSXSXSXSXSX",
"SXSXSXSXSXSXo 7 I.rXxXtXn.{ Z o.|.4X~.B.:XtXjXmXcXcXcXcXcXcXmXcXmXmXcXjX3X4X5X>XN.v.x.N.<X:XT.Q.tXmXCXCXZXmXeXI.5 . SXSXSXSXSXSX",
"SXSXSXSXSXSXSXSX..I.4XxXyXqX9X X^.'.4X>XN.~.eXmXmXmXcXcXmXlXcXcXcXmXmXtX~.x.z.n.;XeXeX<X'.^.;X3XmXCXCXCXmX3Xu..., SXSXSXSXSXSXSX",
"SXSXSXSXSXSXSXSX0 ..I.=XlXZXVXnX:X^.:X*X!.~.2XjXmXMXBXMXNXBXMXmXjXhXjXwX~.v.n.~.<XtX3X:X'.].aXBXZXZXCXkX=XI...7 SXSXSXSXSXSXSXSX",
"SXSXSXSXSXSXSXSXSX< 5 ..=XCXCXCXbX<XM.M.<XpXwXwXbXZXZXCXZXZXZXNXyX.X2XwXyXfXgXrX].M.f.M.-XnXCXZXZXZXBX-Xu 4 , SXSXSXSXSXSXSXSXSX",
"SXSXSXSXSXSXSXSXSXSX  4 i.*X0XfXBXaXW.M.=XyX<X<XyXdXnXmXNXbXgXtX2XXXXX2XgXkXfX4X#XV.c.Q.AXZXZXNXdX0X*Xi.4   SXSXSXSXSXSXSXSXSXSX",
"SXSXSXSXSXSXSXSXSXSXSX@ 4 0 ..I.rXmXxX=XW.M.oX'.n.!.:X3X3X;XN.N.].:X>X#X^.B.c.M.4XgXfXkXCXCXBXeXI.%.e 4 @ SXSXSXSXSXSXSXSXSXSXSX",
"SXSXSXSXSXSXSXSXSXSXSXSX. O 4 ..I.}.0X/.#.+.M.C.v.v.B.'.^.C.v.v.C.OX^.^.'.W.c.`.dXZXAX0X0X-X*XI...2 O . SXSXSXSXSXSXSXSXSXSXSXSX",
"SXSXSXSXSXSXSXSXSXSXSXSXSXSXSX, 6 7 y e } L 9.f.C.C.v.d.d.v.B.'.C.m.a.M.4XkXgXhXmXrXI.%.t 6 7 5 , SXSXSXSXSXSXSXSXSXSXSXSXSXSXSX",
"SXSXSXSXSXSXSXSXSXSXSXSXSXSXSXSX. .   @ 7 0 S L y.M.x.x.d.x.M.u.q.+.S  .Y.0X0X-X*XI...4 @ . . . SXSXSXSXSXSXSXSXSXSXSXSXSXSXSXSX",
"SXSXSXSXSXSXSXSXSXSXSXSXSXSXSXSXSXSXSXSXSX- = ; 2 | M.'.OXb.o.7 3 2 = ; 6 y y y 7 6 , SXSXSXSXSXSXSXSXSXSXSXSXSXSXSXSXSXSXSXSXSX",
"SXSXSXSXSXSXSXSXSXSXSXSXSXSXSXSXSXSXSXSXSXSXo o + 3 r.E.M.r.3 $ $ + O o o . .   . . SXSXSXSXSXSXSXSXSXSXSXSXSXSXSXSXSXSXSXSXSXSX",
"SXSXSXSXSXSXSXSXSXSXSXSXSXSXSXSXSXSXSXSXSXSXSXSXSX- 8 8 8 8 - SXSXSXSXSXSXSXSXSXSXSXSXSXSXSXSXSXSXSXSXSXSXSXSXSXSXSXSXSXSXSXSXSX",
"SXSXSXSXSXSXSXSXSXSXSXSXSXSXSXSXSXSXSXSXSXSXSXSXSXSX+ $ % + SXSXSXSXSXSXSXSXSXSXSXSXSXSXSXSXSXSXSXSXSXSXSXSXSXSXSXSXSXSXSXSXSXSX",
"SXSXSXSXSXSXSXSXSXSXSXSXSXSXSXSXSXSXSXSXSXSXSXSXSXSXSXSXSXSXSXSXSXSXSXSXSXSXSXSXSXSXSXSXSXSXSXSXSXSXSXSXSXSXSXSXSXSXSXSXSXSXSXSX",
"SXSXSXSXSXSXSXSXSXSXSXSXSXSXSXSXSXSXSXSXSXSXSXSXSXSXSXSXSXSXSXSXSXSXSXSXSXSXSXSXSXSXSXSXSXSXSXSXSXSXSXSXSXSXSXSXSXSXSXSXSXSXSXSX"
};
