/* XPM */
static char *result[] = {
/* columns rows colors chars-per-pixel */
"64 64 233 2 ",
"   c #0A000F",
".  c #0D0010",
"X  c #18061E",
"o  c #2F0316",
"O  c #320516",
"+  c #360C1D",
"@  c #390D1E",
"#  c #350719",
"$  c #36171E",
"%  c #2B082D",
"&  c #3A0D20",
"*  c #3C1C23",
"=  c #3E1223",
"-  c #2E1138",
";  c #49151A",
":  c #4D1A1F",
">  c #550E13",
",  c #680507",
"<  c #72080C",
"1  c #7A1216",
"2  c #69101A",
"3  c #441A2A",
"4  c #551825",
"5  c #4B153A",
"6  c #571C3C",
"7  c #490C2E",
"8  c #750A2B",
"9  c #6B1A27",
"0  c #7C122A",
"q  c #412127",
"w  c #45252A",
"e  c #58232B",
"r  c #552C36",
"t  c #5D323A",
"y  c #593538",
"u  c #4D2E34",
"i  c #65262C",
"p  c #762835",
"a  c #6A3A3C",
"s  c #64363A",
"d  c #762D34",
"f  c #371A46",
"g  c #391C49",
"h  c #351641",
"j  c #4E1740",
"k  c #531A41",
"l  c #5C2548",
"z  c #5E3E40",
"x  c #693C42",
"c  c #642E53",
"v  c #624344",
"b  c #6D454A",
"n  c #65494B",
"m  c #6C4346",
"M  c #74494A",
"N  c #6D4E53",
"B  c #784F51",
"V  c #6D5256",
"C  c #6F585D",
"Z  c #6A5358",
"A  c #7B5554",
"S  c #785857",
"D  c #7C554F",
"F  c #5E4142",
"G  c #810308",
"H  c #8F0C18",
"J  c #910C17",
"K  c #83141F",
"L  c #94111A",
"P  c #840124",
"I  c #8A0626",
"U  c #8E0927",
"Y  c #8F0C2C",
"T  c #920B27",
"R  c #930D2A",
"E  c #990F2A",
"W  c #861A2A",
"Q  c #841428",
"!  c #95112E",
"~  c #9B132B",
"^  c #9C1526",
"/  c #881932",
"(  c #9A1531",
")  c #9A1633",
"_  c #A51B2B",
"`  c #A5192C",
"'  c #A41D32",
"]  c #A61F36",
"[  c #B21F35",
"{  c #97202F",
"}  c #8C2637",
"|  c #922C3C",
" . c #992735",
".. c #8E2C3A",
"X. c #AC2234",
"o. c #AA2639",
"O. c #B12335",
"+. c #B52C3C",
"@. c #B92639",
"#. c #B6303E",
"$. c #AD333E",
"%. c #82403F",
"&. c #9D3748",
"*. c #8F3842",
"=. c #AC2D42",
"-. c #B12F42",
";. c #BF2E40",
":. c #A73946",
">. c #B43244",
",. c #BA3544",
"<. c #BC3846",
"1. c #BE3C4B",
"2. c #B9374D",
"3. c #A63E53",
"4. c #BD3D53",
"5. c #C13D4B",
"6. c #C43343",
"7. c #C02E41",
"8. c #865A57",
"9. c #8F5552",
"0. c #B4495A",
"q. c #AA4A55",
"w. c #87625D",
"e. c #95625D",
"r. c #B64E63",
"t. c #BC5568",
"y. c #A45464",
"u. c #8A6765",
"i. c #996A68",
"p. c #95726C",
"a. c #9D726B",
"s. c #9A7B73",
"d. c #997A76",
"f. c #A96766",
"g. c #B66C65",
"h. c #BD756A",
"j. c #A87B78",
"k. c #B77471",
"l. c #A86258",
"z. c #C1414F",
"x. c #C44452",
"c. c #C54856",
"v. c #CB4C5A",
"b. c #C84957",
"n. c #D14B59",
"m. c #CB515E",
"M. c #D2515F",
"N. c #CC5462",
"B. c #CF5966",
"V. c #C55968",
"C. c #D25462",
"Z. c #D45D6A",
"A. c #DA5D6B",
"S. c #D55765",
"D. c #D14F62",
"F. c #CB626D",
"G. c #DA616E",
"H. c #C3766D",
"J. c #CC6775",
"K. c #DC6472",
"L. c #D06B76",
"P. c #C47B76",
"I. c #D87E74",
"U. c #E46C7A",
"Y. c #E66B78",
"T. c #E9707D",
"R. c #A8857B",
"E. c #BB807A",
"W. c #D88A7E",
"Q. c #D77B85",
"!. c #ED7784",
"~. c #AD8D84",
"^. c #AA8886",
"/. c #B48D84",
"(. c #B9968A",
"). c #B69C97",
"_. c #AE9494",
"`. c #B4A6A9",
"'. c #CC8888",
"]. c #D48787",
"[. c #C3988B",
"{. c #CA9594",
"}. c #D99694",
"|. c #CC8F91",
" X c #E48A86",
".X c #EC8B96",
"XX c #E79B9A",
"oX c #F69899",
"OX c #EB9389",
"+X c #C7A697",
"@X c #D8A89A",
"#X c #F5A19E",
"$X c #EAB19F",
"%X c #F39DA2",
"&X c #C9AAA6",
"*X c #D5B5A8",
"=X c #CEB7B9",
"-X c #CBB8B5",
";X c #D7BABA",
":X c #D2AFAB",
">X c #F6A1A2",
",X c #F6ACAC",
"<X c #FAABAC",
"1X c #F8A5A5",
"2X c #F4B3AA",
"3X c #E4B7B7",
"4X c #FBB5B5",
"5X c #FCBBBC",
"6X c #F8B5B5",
"7X c #E7B1A7",
"8X c #DCC2BA",
"9X c #E7C7B9",
"0X c #F7C5BC",
"qX c #EFBDC2",
"wX c #F0BFC4",
"eX c #D1CDCE",
"rX c #D6C6C6",
"tX c #E8C7C3",
"yX c #FCC3C3",
"uX c #FCCBCA",
"iX c #F3C5C6",
"pX c #F6D1CA",
"aX c #E8D7D4",
"sX c #FDD3D2",
"dX c #FEDBDB",
"fX c #F9DAD8",
"gX c #FBCBD1",
"hX c #FDE2D8",
"jX c #FFE3E3",
"kX c #FEECE9",
"lX c #FFF0F0",
"zX c #F5DDE0",
"xX c None",
/* pixels */
"xXxXxXxXxXxXxXxXxXxXxXxXxXxXxXxXxXxXxXxXxXxXxXxXxXxXxXxXxXxXxXxXxXxXxXxXxXxXxXxXxXxXxXxXxXxXxXxXxXxXxXxXxXxXxXxXxXxXxXxXxXxXxXxX",
"xXxXxXxXxXxXxXxXxXxXxXxXxXxXxXxXxXxXxXxXxXxXxXxXxXxXxXxXxXxXxXxXxXxXxXxXxXxXxXxXxXxXxXxXxXxXxXxXxXxXxXxXxXxXxXxXxXxXxXxXxXxXxXxX",
"xXxXxXxXxXxXxXxXxXxXxXxXxXxXxXxXxXxXxXxXxXxXxXxXxXxXxXxXxXxXxXxXxXxXxXxXxXxXxXxXxXxXxXxXxXxXxXxXxXxXxXxXxXxXxXxXxXxXxXxXxXxXxXxX",
"xXxXxXxXxXxXxXxXxXxXxXxXxXxXxXxXxXxXxXxXxXxXxXxXxXxXxXxXxXxXxXxXxXxXxXxXxXxXxXxXxXxXxXxXxXxXxXxXxXxXxXxXxXxXxXxXxXxXxXxXxXxXxXxX",
"xXxXxXxXxXxXxXxXxXxXxXxXxXxXxXxXxXxXxXxXxXxXxXxXxXxXxXxXxXxXxXxXxXxXxXxXxXxXxXxXxXxXxXxXxXxXxXxXxXxXxXxXxXxXxXxXxXxXxXxXxXxXxXxX",
"xXxXxXxXxXxXxXxXxXxXxXxXxXxXxXxXxXxXxXxXxXxXxXxXxXxXxXxXxXxXxXxXxXxXxXxXxXxXxXxXxXxXxXxXxXxXxXxXxXxXxXxXxXxXxXxXxXxXxXxXxXxXxXxX",
"xXxXxXxXxXxXxXxXxXxXxXxXxXxXxXxXxXxXxXxXxXxX* * * * * * * * * * * * * * * * * * * * xXxXxXxXxXxXxXxXxXxXxXxXxXxXxXxXxXxXxXxXxXxX",
"xXxXxXxXxXxXxXxXxXxXxXxXxXxXxXxXxXxXxXxXxXxXC C C V b b V C C N b b V C C V b b V C xXxXxXxXxXxXxXxXxXxXxXxXxXxXxXxXxXxXxXxXxXxX",
"xXxXxXxXxXxXxXxXxXxXxXxXxXxXxXxXxXxXxXxX* Z `.eXeX=X{.{.=XeXeX=X|.{.=XeXeX=X{.{.=X`.Z * xXxXxXxXxXxXxXxXxXxXxXxXxXxXxXxXxXxXxXxX",
"xXxXxXxXxXxXxXxXxXxXxXxXxXxXxXxXxXxXxXxXt u.;XlXlXdX4X4XdXlXlXdX5X4XdXlXlXdX4X5XdX8Xu.t xXxXxXxXxXxXxXxXxXxXxXxXxXxXxXxXxXxXxXxX",
"xXxXxXxXxXxXxXxXxXxXxXxXxXxXxXxXxXxX* a y.].oX4X5X4X<X<X6XwXwX4X<X<X4XwX5X4X<X<X<X%XQ.f.x * xXxXxXxXxXxXxXxXxXxXxXxXxXxXxXxXxXxX",
"xXxXxXxXxXxXxXxXxXxXxXxXxXxXxXxXxXxX* m ].<X#X#X,X,X>X#X1X<X2X<X>X>X<X<X4X<X>X#X>X<X<X].b * xXxXxXxXxXxXxXxXxXxXxXxXxXxXxXxXxXxX",
"xXxXxXxXxXxXxXxXxXxXxXxXxXxXxXxXxXxX* V :XhX0X0XuXyX>XoX2X0XsX0X>X%XwXsXsXyX#X1XyXdXjX:XN * xXxXxXxXxXxXxXxXxXxXxXxXxXxXxXxXxXxX",
"xXxXxXxXxXxXxXxXxXxXxXxXxXxXxXxXxXxX* n ).tX9X9XuXuX4X2X7X9XpXuX4X6XdXjXdXyX#X4XdXlXaX).n * xXxXxXxXxXxXxXxXxXxXxXxXxXxXxXxXxXxX",
"xXxXxXxXxXxXxXxXxXxXxXxXxXxXxXxX* * q u S R.+X3X,X5XsXpX@X+X7X5XsXdXlXdX5X,X2XpXkXaX_.A r * * * xXxXxXxXxXxXxXxXxXxXxXxXxXxXxXxX",
"xXxXxXxXxXxXxXxXxXxXxXxXxXxXxXxXv z u y S p.R.[.|.}.;X-X~.j.'.XXtXaXaX;X}.].+X*XrX&Xi.M r u F v xXxXxXxXxXxXxXxXxXxXxXxXxXxXxXxX",
"xXxXxXxXxXxXxXxXxXxXs t t t t B s.s.M S +X&Xi.8.p.j.p.w.A 8.p.R.^._._.j.e.8.w.w.u.a.P.h.M v R.R.v * q q xXxXxXxXxXxXxXxXxXxXxXxX",
"xXxXxXxXxXxXxXxXxXxXt x B S A u./.~.8.a.tXtXj.8.j.j.e.8.8.u.R.R.^.^.j.j.p.w.D 8.8.f. X Xl.w.R.R.S y u q xXxXxXxXxXxXxXxXxXxXxXxX",
"xXxXxXxXxXxXxXxXxXxXt B /.+X(./.^.a.l.k.9XuXXX].7X3X].W.}.+X+X&X;X3XXX}.*X:XR.R.+X@X#XOXW.g.e.u.R.p.y q xXxXxXxXxXxXxXxXxXxXxXxX",
"xXxXxXxXxXxXxXxXxXxXt 8.+X9X&X(.~.R.k.{.5XuX4X5XhXsX#XW.$X7X+X@X0X0XoX>X0X6X+XE.@X@X].H.H.g.e.p.~.s.F * xXxXxXxXxXxXxXxXxXxXxXxX",
"xXxXxXxXxXxXxXxXxXxXt A (.&X_.^.+X8XtXiX6X6XsXjXlXaX}.W.W.W.g.W..X#XoXoX#XXXH.g.H.g.9.s a 8.(.[.p.b u q xXxXxXxXxXxXxXxXxXxXxXxX",
"xXxXxXxXxXxXxXxXxXxXt B R./.j.(.9XhXkXpX}.|.-XrX8X&XW.W.W.W.g.E.XX#XoXoX#XXXH.l.9.%.i : ; a R.[.p.D u * xXxXxXxXxXxXxXxXxXxXxXxX",
"xXxXxXxXxXxXxXxXxXxXxXxXD i.Q.@XpXhXhX*Xu.x n Z D w.W.W.2X$XE.+XtXuX1X1XuX0X[.i.m i p K < 2 a w.(.R.v $ xXxXxXxXxXxXxXxXxXxXxXxX",
"xXxXxXxXxXxXxXxXxXxXxXxX9.f.XXyXhXaX*Xj.a ; 4 4 : d l.E.W.+X(.+XaXdX<X<XkXaX(.w.s 9 { _ J < ; b +X*Xp.Z xXxXxXxXxXxXxXxXxXxXxXxX",
"xXxXxXxXxXxXxXxXxXxX* x k.XXgXfXtX+Xu.z 2 < K { | | %.z n S R.+X9X0X2X4XjXeXu.t W  .#.#._ K : v (.9XrX`.V * xXxXxXxXxXxXxXxXxXxX",
"xXxXxXxXxXxXxXxXxXxXq s f.|.=X=X).u.y > < J _ +.z.:.d e e x w.R.[.+XW.|.:X).M 9 { +.<.1.+. .i s p.).=X).n q xXxXxXxXxXxXxXxXxXxX",
"xXxXxXxXxXxXxXxXxXxXq u x b N Z v i 2 < J _ #.6.6.q.:.:.:...a F n M m b V M } { #.1.5.z.<.$.{ } a n V n u q xXxXxXxXxXxXxXxXxXxX",
"xXxXxXxXxXxXxXxXxXxXq * * * = 3 y d 1 J _ +.<.0.x.c.z.z.z.$.i ; ; ; ; : 4 i  .+.6.5.0.z.z.5.6. .e * $ 3 q q xXxXxXxXxXxXxXxXxXxX",
"xXxXxXxXxXxXxXxXxXxXxXxXxXxX& r l.t.X._ +.<.1.x.m.m.x.z.x.#.K , , , , 1 | :.,.<.5.x.4.1.5.b.D.0.r % xXxXxXxXxXxXxXxXxXxXxXxXxXxX",
"xXxXxXxXxXxXxXxXxXxXxXxXxXxX% l F.T.n.6.0.z.b.m.m.v.z.0.#.X.L G G G < L #.z.x.5.1.5.1.x.v.C.D.q.6 % xXxXxXxXxXxXxXxXxXxXxXxXxXxX",
"xXxXxXxXxXxXxXxXxXxXxXxXxXxX% l t.T.T.K.x.b.K.Y.v.z.z.$. .R ^ L J H ^ _ >.5.1.1.1.1.1.v.Y.G.2./ 7 % xXxXxXxXxXxXxXxXxXxXxXxXxXxX",
"xXxXxXxXxXxXxXxXxXxXxXxXxXxX% k r.Y.Y.K.M.K.oXoX].L.M.x.o.R ~ ~ T R _ ,.F.L.B.Z.L.J.B.S.U.A.o.8 7 % xXxXxXxXxXxXxXxXxXxXxXxXxXxX",
"xXxXxXxXxXxXxXxXxXxXxXxXxXxX% 6 t.A.x.x.K..XgXkXfXqX.XK.5.o.' U I R =.V.3XwX.X.XwXwX.XU.A.x.O.Q 7 % xXxXxXxXxXxXxXxXxXxXxXxXxXxX",
"xXxXxXxXxXxXxXxXxXxXxXxXxXxX% l 0.n.@.+.A..XtXzXzXqX.XA.b.+.( U I R o.t.3XwX!..XqXiX.XK.v.,.O./ 7 - xXxXxXxXxXxXxXxXxXxXxXxXxXxX",
"xXxXxXxXxXxXxXxXxXxXxXxXxXxXf l 3.5.O.O.5.G.Q.Q.Q.V.x.+.+.] ` ` ` ~ R =.V.F.0.x.F.L.Z.v.x.,.O./ 6 f xXxXxXxXxXxXxXxXxXxXxXxXxXxX",
"xXxXxXxXxXxXxXxXxXxXxXxXxXxXg l 3.5.] ' >.c.m.m.x.,.@.` ` ` ` ` [ ` R ! -.,.X.X.,.1.5.5.1.,.X./ k g xXxXxXxXxXxXxXxXxXxXxXxXxXxX",
"xXxXxXxXxXxXxXxXxXxXxXxXxXxXg c r.v.' ! >.x.N.N.x.5.7.@.` R R ` @.@._ X.,.,.X.X.,.5.5.5.5.>.] 0 6 g xXxXxXxXxXxXxXxXxXxXxXxXxXxX",
"xXxXxXxXxXxXxXxXxXxXxXxXxXxXf c t.D.) Y -.c.Z.Z.c.1.7.[ E I I ( @.@._ X.,.<.X.X.,.x.0.5.4.2.) 8 j g xXxXxXxXxXxXxXxXxXxXxXxXxXxX",
"xXxXxXxXxXxXxXxXxXxXxXxXxXxXg c t.D.) Y -.v.U.U.m.>.] E I I I R ~ ` ~ ( >.<.X.O.<.5.0.5.5.2.Y 8 j g xXxXxXxXxXxXxXxXxXxXxXxXxXxX",
"xXxXxXxXxXxXxXxXxXxXxXxXxXxXg c r.v.] ) -.N.!.!.C.-.~ I P I ~ ~ R I U ) >.>.X.X.2.5.5.x.5.=.Y 8 5 g xXxXxXxXxXxXxXxXxXxXxXxXxXxX",
"xXxXxXxXxXxXxXxXxXxXxXxXxXxXg l 3.2.] ` ,.N.!.!.N.>.! P 8 T [ @.~ I I ! >.>.) ! >.z.z.z.x.>.! 8 j g xXxXxXxXxXxXxXxXxXxXxXxXxXxX",
"xXxXxXxXxXxXxXxXxXxXxXxXxXxXg l &.5.@.@.<.v.U.Y.m.>.! P I E [ [ E I I ) >.>.) ! >.0.z.z.5.>.! 8 j g xXxXxXxXxXxXxXxXxXxXxXxXxXxX",
"xXxXxXxXxXxXxXxXxXxXxXxXxXxXg l &.5.7.7.5.x.Z.Z.c.>.~ T E ` R U I I E X.,.,.X.' ,.z.z.z.x.-.) 8 j g xXxXxXxXxXxXxXxXxXxXxXxXxXxX",
"xXxXxXxXxXxXxXxXxXxXxXxXxXxXg l 3.5.7.;.6.0.N.N.c.>.) R ` E I I I T ~ ] #.>.' X.,.z.z.z.5.,.] 0 j g xXxXxXxXxXxXxXxXxXxXxXxXxXxX",
"xXxXxXxXxXxXxXxXxXxXxXxXxXxXf l &.>.' ) >.b.N.N.c.>.) T R T U T ~ ^ T ! X.X.! ! >.z.z.z.z.<.[ / k g xXxXxXxXxXxXxXxXxXxXxXxXxXxX",
"xXxXxXxXxXxXxXxXxXxXxXxXxXxX- l 3.2.! Y >.x.N.N.x.>.~ Y R R ~ ~ ~ E P Y o.X.R ! >.z.z.z.<.,.' / k g xXxXxXxXxXxXxXxXxXxXxXxXxXxX",
"xXxXxXxXxXxXxXxXxXxXxXxXxXxXX 5 0.b.) Y -.b.N.N.c.>.~ I ^ _ _ ~ T I P ! -.-.~ ~ >.z.z.1.#.O.E 8 k g xXxXxXxXxXxXxXxXxXxXxXxXxXxX",
"xXxXxXxXxXxXxXxXxXxXxXxXxXxX  3 r.D.] ! >.0.N.N.c.-.Y I R ` _ ^ U P P ! >.>.) ) >.z.z.<.#.X.R 8 5 - xXxXxXxXxXxXxXxXxXxXxXxXxXxX",
"xXxXxXxXxXxXxXxXxXxXxXxXxXxX. 3 0.S.+.' >.x.N.N.c.=.! P U U T R T I I ) >.>.! Y -.x.5.4.5.-.E 2 & X xXxXxXxXxXxXxXxXxXxXxXxXxXxX",
"xXxXxXxXxXxXxXxXxXxXxXxXxXxX. 3 q.M.6.+.x.C.B.N.x.>.! P P U T R T R ~ ] <.>.! ! >.x.c.v.D.5.[ 8 o . xXxXxXxXxXxXxXxXxXxXxXxXxXxX",
"xXxXxXxXxXxXxXxXxXxXxXxXxXxX. = &.x.5.x.Y.!.Z.N.0.,.X.~ T T ^ ^ R ~ [ ;.1.,.X.' >.x.N.K.!.A.,.0 # . xXxXxXxXxXxXxXxXxXxXxXxXxXxX",
"xXxXxXxXxXxXxXxXxXxXxXxXxXxX. + p $.,.x.A.K.K.F.S.b.,.o.) ' X.X.' ] 6.n.v.c.,.,.b.N.N.A.U.Z.| 2 O . xXxXxXxXxXxXxXxXxXxXxXxXxXxX",
"xXxXxXxXxXxXxXxXxXxXxXxXxXxXxXxX& 4 / O.=.4.U.!.!.Y.Z.b.0.#.<.<.>.1.D.K.T.Y.A.Z.U.K.5.6.n.3.9 o xXxXxXxXxXxXxXxXxXxXxXxXxXxXxXxX",
"xXxXxXxXxXxXxXxXxXxXxXxXxXxXxXxX. o 9 0 2 } B.!.T.Y.K.C.z.6.<.<.5.b.C.K.T.T.G.G.Y.B. .W } p &   xXxXxXxXxXxXxXxXxXxXxXxXxXxXxXxX",
"xXxXxXxXxXxXxXxXxXxXxXxXxXxXxXxXxXxXO O O 4 2.v.5.5.x.z.#.O.O.+.6.b.v.v.C.C.v.b.5. .4 # + + xXxXxXxXxXxXxXxXxXxXxXxXxXxXxXxXxXxX",
"xXxXxXxXxXxXxXxXxXxXxXxXxXxXxXxXxXxX. . . & p | W W  .| W Q Q W | | *.| | | | | / 2 o . . . xXxXxXxXxXxXxXxXxXxXxXxXxXxXxXxXxXxX",
"xXxXxXxXxXxXxXxXxXxXxXxXxXxXxXxXxXxXxXxXxXxX@ @ # # @ @ # # # # @ & & & & = @ @ # # xXxXxXxXxXxXxXxXxXxXxXxXxXxXxXxXxXxXxXxXxXxX",
"xXxXxXxXxXxXxXxXxXxXxXxXxXxXxXxXxXxXxXxXxXxX. . . . . . . . . . . . . . .   .   . . xXxXxXxXxXxXxXxXxXxXxXxXxXxXxXxXxXxXxXxXxXxX",
"xXxXxXxXxXxXxXxXxXxXxXxXxXxXxXxXxXxXxXxXxXxXxXxXxXxXxXxXxXxXxXxXxXxXxXxXxXxXxXxXxXxXxXxXxXxXxXxXxXxXxXxXxXxXxXxXxXxXxXxXxXxXxXxX",
"xXxXxXxXxXxXxXxXxXxXxXxXxXxXxXxXxXxXxXxXxXxXxXxXxXxXxXxXxXxXxXxXxXxXxXxXxXxXxXxXxXxXxXxXxXxXxXxXxXxXxXxXxXxXxXxXxXxXxXxXxXxXxXxX",
"xXxXxXxXxXxXxXxXxXxXxXxXxXxXxXxXxXxXxXxXxXxXxXxXxXxXxXxXxXxXxXxXxXxXxXxXxXxXxXxXxXxXxXxXxXxXxXxXxXxXxXxXxXxXxXxXxXxXxXxXxXxXxXxX",
"xXxXxXxXxXxXxXxXxXxXxXxXxXxXxXxXxXxXxXxXxXxXxXxXxXxXxXxXxXxXxXxXxXxXxXxXxXxXxXxXxXxXxXxXxXxXxXxXxXxXxXxXxXxXxXxXxXxXxXxXxXxXxXxX",
"xXxXxXxXxXxXxXxXxXxXxXxXxXxXxXxXxXxXxXxXxXxXxXxXxXxXxXxXxXxXxXxXxXxXxXxXxXxXxXxXxXxXxXxXxXxXxXxXxXxXxXxXxXxXxXxXxXxXxXxXxXxXxXxX",
"xXxXxXxXxXxXxXxXxXxXxXxXxXxXxXxXxXxXxXxXxXxXxXxXxXxXxXxXxXxXxXxXxXxXxXxXxXxXxXxXxXxXxXxXxXxXxXxXxXxXxXxXxXxXxXxXxXxXxXxXxXxXxXxX"
};
