/* XPM */
static char *result[] = {
/* columns rows colors chars-per-pixel */
"64 64 158 2 ",
"   c #1C0700",
".  c #1F0A00",
"X  c #250E00",
"o  c #261000",
"O  c #2A1101",
"+  c #381D0B",
"@  c #371D0B",
"#  c #3C200B",
"$  c #322217",
"%  c #382619",
"&  c #332419",
"*  c #4B2B13",
"=  c #59371E",
"-  c #5B3819",
";  c #4B3728",
":  c #4F3B2D",
">  c #5F3F27",
",  c #513C2D",
"<  c #603F27",
"1  c #5D452D",
"2  c #544235",
"3  c #584536",
"4  c #5E4833",
"5  c #564438",
"6  c #594639",
"7  c #5E4B3D",
"8  c #67472F",
"9  c #68442A",
"0  c #61482E",
"q  c #765123",
"w  c #604A37",
"e  c #614D3C",
"r  c #724D33",
"t  c #725235",
"y  c #72583C",
"u  c #614F42",
"i  c #625043",
"p  c #6E594A",
"a  c #705A4B",
"s  c #7F6043",
"d  c #805A3F",
"f  c #81613F",
"g  c #805B40",
"h  c #8B6545",
"j  c #8A6940",
"k  c #97774D",
"l  c #9D7948",
"z  c #8E735F",
"x  c #937455",
"c  c #997656",
"v  c #92745C",
"b  c #9C7A5B",
"n  c #A07B4F",
"m  c #A07B50",
"M  c #8F7460",
"N  c #87796D",
"B  c #907562",
"V  c #9D7D63",
"C  c #967964",
"Z  c #877A70",
"A  c #887A70",
"S  c #A18064",
"D  c #A58862",
"F  c #A78868",
"G  c #AA8E69",
"H  c #B08E61",
"J  c #B49364",
"K  c #B6966E",
"L  c #B7996C",
"P  c #B49774",
"I  c #B69A72",
"U  c #BFA17B",
"Y  c #C0A277",
"T  c #CAA473",
"R  c #C7AA7F",
"E  c #CFAC7B",
"W  c #A89E98",
"Q  c #A99C91",
"!  c #BCA684",
"~  c #ABA19A",
"^  c #BBA595",
"/  c #BAAEA5",
"(  c #BDB1A8",
")  c #CBAF84",
"_  c #C4AD88",
"`  c #D2AF80",
"'  c #CDB185",
"]  c #CAB18C",
"[  c #D4B284",
"{  c #D6B68A",
"}  c #D8B688",
"|  c #D7B88C",
" . c #DABB8D",
".. c #C4B195",
"X. c #CFB791",
"o. c #C7B79D",
"O. c #C8B79E",
"+. c #D3B992",
"@. c #DABC92",
"#. c #C9BBA6",
"$. c #DDC094",
"%. c #DCC39C",
"&. c #E3C69B",
"*. c #E3CA9E",
"=. c #D6C1A2",
"-. c #DAC5A5",
";. c #DDC9AD",
":. c #CBC2B9",
">. c #D3C9BE",
",. c #E6CDA3",
"<. c #EACEA5",
"1. c #E4CDA9",
"2. c #E7D1AB",
"3. c #ECD5AC",
"4. c #E4D1B2",
"5. c #EDD4B0",
"6. c #EDD9B5",
"7. c #EEDBBA",
"8. c #F2D7B5",
"9. c #F0DBB7",
"0. c #F1DDBB",
"q. c #F4E1BC",
"w. c #CCC6C2",
"e. c #CEC8C4",
"r. c #D1CAC5",
"t. c #D3CDC8",
"y. c #DCD3CD",
"u. c #DDD1C4",
"i. c #DAD5D2",
"p. c #DCD8D5",
"a. c #EFDEC1",
"s. c #F3DFC0",
"d. c #E9DFD4",
"f. c #F3E2C4",
"g. c #F9E5C6",
"h. c #F4E5C9",
"j. c #FAE6C9",
"k. c #F7E8CA",
"l. c #FAEBCE",
"z. c #EAE3DE",
"x. c #F5EAD4",
"c. c #FBEED3",
"v. c #F5ECDA",
"b. c #FBEEDB",
"n. c #F1E5D4",
"m. c #FEF1D5",
"M. c #FCF1DB",
"N. c #ECE6E1",
"B. c #F4EBE0",
"V. c #F7F0E5",
"C. c #FDF4E4",
"Z. c #FDF6EB",
"A. c #FEF9ED",
"S. c #F6F4F3",
"D. c #FBF7F0",
"F. c #FFFBF3",
"G. c #FFFFFE",
"H. c None",
/* pixels */
"H.H.H.H.H.H.H.H.H.H.H.H.H.H.H.H.H.H.H.H.H.H.H.H.H.H.H.H.H.H.H.H.H.H.H.H.H.H.H.H.H.H.H.H.H.H.H.H.H.H.H.H.H.H.H.H.H.H.H.H.H.H.H.H.",
"H.H.H.H.H.H.H.H.H.H.H.H.H.H.H.H.H.H.H.H.H.H.H.H.H.H.H.H.H.H.H.H.H.H.H.H.H.H.H.H.H.H.H.H.H.H.H.H.H.H.H.H.H.H.H.H.H.H.H.H.H.H.H.H.",
"H.H.H.H.H.H.H.H.H.H.H.H.H.H.H.H.H.H.H.H.H.H.H.H.H.H.H.H.H.H.H.H.H.H.H.H.H.H.H.H.H.H.H.H.H.H.H.H.H.H.H.H.H.H.H.H.H.H.H.H.H.H.H.H.",
"H.H.H.H.H.H.H.H.H.H.H.H.H.H.H.H.H.H.H.H.H.H.H.H.H.H.H.H.H.H.H.H.H.H.H.H.H.H.H.H.H.H.H.H.H.H.H.H.H.H.H.H.H.H.H.H.H.H.H.H.H.H.H.H.",
"H.H.H.H.H.H.H.H.H.H.H.H.H.H.H.H.H.H.H.H.H.H.H.H.H.H.H.H.H.H.H.H.H.H.H.H.H.H.H.H.H.H.H.H.H.H.H.H.H.H.H.H.H.H.H.H.H.H.H.H.H.H.H.H.",
"H.H.H.H.H.H.H.H.H.H.H.H.H.H.H.H.H.H.H.H.H.H.H.H.H.H.H.H.H.H.H.H.H.H.H.H.H.H.H.H.H.H.H.H.H.H.H.H.H.H.H.H.H.H.H.H.H.H.H.H.H.H.H.H.",
"H.H.H.H.H.H.H.H.H.H.H.H.H.H.H.H.H.H.H.H.H.H.d g g g g g g g g a g g g g g g g g g g H.H.H.H.H.H.H.H.H.H.H.H.H.H.H.H.H.H.H.H.H.H.",
"H.H.H.H.H.H.H.H.H.H.H.H.H.H.H.H.H.H.H.H.H.H.b b V S S S S S S S S S S S S S S V V b H.H.H.H.H.H.H.H.H.H.H.H.H.H.H.H.H.H.H.H.H.H.",
"H.H.H.H.H.H.H.H.H.H.H.H.H.H.H.H.g d d h l L R +.-.;.;.;.;.;.;.;.1.1.;.;.;.;.;.-.+.R J n h y g g H.H.H.H.H.H.H.H.H.H.H.H.H.H.H.H.",
"H.H.H.H.H.H.H.H.H.H.H.H.H.H.H.H.c b S F I ) ,.0.l.m.m.m.c.m.c.m.b.c.b.c.m.M.m.l.0.,.' K F V m b H.H.H.H.H.H.H.H.H.H.H.H.H.H.H.H.",
"H.H.H.H.H.H.H.H.H.H.H.H.* - q l Y +.-.;.1.7.f.k.c.c.m.c.m.m.c.m.c.c.c.m.c.m.c.c.k.f.6.4.4.-.+.Y c r = * H.H.H.H.H.H.H.H.H.H.H.H.",
"H.H.H.H.H.H.H.H.H.H.H.H.t f k L %.q.l.m.m.c.c.l.k.f.a.7.7.7.7.7.0.7.0.0.7.0.s.j.l.c.c.c.m.l.q.%.P v s t H.H.H.H.H.H.H.H.H.H.H.H.",
"H.H.H.H.H.H.H.H.H.H.* t G ] =.2.0.l.c.c.c.c.c.j.9.<.$. .}  .| | {  .{ { { @.<.0.j.c.c.c.c.c.k.f.4.=.] G t * H.H.H.H.H.H.H.H.H.H.",
"H.H.H.H.H.H.H.H.H.H.t x +.q.c.m.c.c.k.f.s.0.8.5.&. .E T T T T T T T T T T `  .,.8.8.0.0.0.0.f.k.c.c.q.+.x r H.H.H.H.H.H.H.H.H.H.",
"H.H.H.H.H.H.H.H.* t G X.6.l.m.c.c.l.0.<.@.{ { [ [ E T T T T T T T T T T T T ` ` } { { { { @.2.0.l.c.l.6.+.G t * H.H.H.H.H.H.H.H.",
"H.H.H.H.H.H.H.H.t x | q.l.l.k.f.7.3.,.@.[ ` [ [ |  .+.@.+. .+.+. .+. . .+. .+.{ [ [ ` E T E  .<.9.k.c.k.q.+.x t H.H.H.H.H.H.H.H.",
"H.H.H.H.H.H.g x P X.6.l.l.k.9.<.$.[ [ [  .&.<.3.7.a.h.a.h.a.f.f.h.a.h.a.h.a.h.7.8.<.&. .E T E  .,.q.k.m.l.6.X.P x a H.H.H.H.H.H.",
"H.H.H.H.H.H.h S @.q.l.x.k.q.*.$.| [ { @.2.9.0.j.M.M.M.C.M.C.C.M.M.C.M.M.M.C.M.c.g.q.6.2.@.} }  .&.<.6.q.l.k.q.$.D f H.H.H.H.H.H.",
"H.H.H.H.H.H.n L 1.l.m.k.6.*.| } &.3.8.s.h.c.l.l.m.M.c.M.M.M.c.c.v.M.M.c.c.M.M.c.l.l.c.h.s.8.5.<.<.*. .%.q.m.l.;.L n H.H.H.H.H.H.",
"H.H.H.H.H.H.H ) 6.l.k.7.,.$.} $.9.j.c.c.b.M.c.c.l.l.l.l.l.l.l.l.l.l.l.l.c.l.l.l.c.c.M.M.c.c.j.0.3.%.[ | 2.f.l.7.` H H.H.H.H.H.H.",
"H.H.H.H.X 1 I ,.f.l.q.*.} [ &.9.l.c.c.c.c.c.c.l.l.c.l.l.l.l.l.l.l.l.l.l.l.l.l.l.l.c.c.c.c.M.c.k.3.*.$.$.$.$.f.f.,.I 0 O H.H.H.H.",
"H.H.H.H.* y _ q.k.g.,.$.| &.8.g.c.b.c.l.l.c.c.c.c.M.M.M.M.M.M.M.M.M.M.M.M.b.M.M.c.c.c.l.l.c.M.l.0.3.6.*.E | 7.k.q._ y * H.H.H.H.",
"H.H.H.H.j D -.l.c.7.@. .1.s.g.l.c.c.c.c.l.c.M.C.C.A.Z.Z.A.Z.A.A.A.A.Z.Z.A.A.A.C.C.b.c.k.l.l.c.c.k.f.k.3.} { 6.c.l.-.D f H.H.H.H.",
"H.H.H.H.J ' 6.m.m.0.@.@.0.c.c.c.c.c.c.M.c.M.C.Z.F.F.F.F.F.F.F.F.F.F.F.F.F.F.F.F.C.C.M.b.M.b.c.c.l.m.c.0.$.$.0.m.m.6.' J H.H.H.H.",
"H.H.O 0 I ,.f.m.m.q.,.,.q.c.l.c.b.C.C.A.Z.A.A.A.F.F.F.F.F.F.F.F.F.F.F.F.F.F.F.F.A.A.A.A.A.C.M.M.c.l.c.q.,.,.q.M.m.f.,.I 0 O H.H.",
"H.H.O 1 ! q.l.l.k.q.6.6.k.c.c.M.C.Z.F.F.F.F.F.F.F.F.F.F.F.A.F.F.F.F.F.F.F.F.F.F.F.F.F.F.F.F.Z.C.M.m.x.k.6.6.f.k.l.k.q.! 1 O H.H.",
"H.H.O 4 ..l.m.g.6.6.q.k.k.c.M.M.Z.F.F.F.F.F.F.F.F.F.F.F.F.F.F.F.F.F.F.A.F.F.F.F.F.F.F.F.F.F.F.A.M.M.l.k.k.q.6.6.g.m.l...4 O H.H.",
"H.H.O 7 O.m.m.f.,.,.f.m.M.m.C.A.F.F.F.F.F.F.F.F.F.F.F.F.F.F.F.F.F.F.F.F.F.F.F.F.F.F.F.F.F.F.F.A.A.C.M.m.m.f.,.,.f.m.m.O.w O H.H.",
"H.H.O w O.m.m.0.$.$.0.M.M.C.A.F.F.F.F.F.F.F.F.F.F.F.F.F.F.F.F.F.F.F.F.F.F.F.F.F.F.F.F.F.F.F.F.F.F.A.C.M.M.7. .@.q.m.m.O.w O H.H.",
"H.H.O w O.m.m.7.{ [ 6.M.M.Z.F.F.F.F.F.F.F.F.F.F.F.F.F.F.F.F.F.F.F.F.F.F.F.F.F.F.F.F.F.F.F.F.F.F.F.A.A.C.M.6.} } 7.m.m.O.w O H.H.",
"H.H.O w O.m.m.7.{ { 6.M.A.A.F.F.F.F.F.A.F.F.F.F.F.F.F.F.F.F.F.F.F.F.F.F.F.F.F.F.F.F.F.F.F.F.F.A.F.F.A.A.M.7.} | 7.m.m.O.7 o H.H.",
"H.H.O w O.m.m.7.{ { 6.M.A.F.F.F.F.F.F.F.F.F.F.F.F.F.F.F.F.F.F.F.F.F.F.F.F.F.F.F.F.F.F.F.F.F.F.F.F.F.F.A.M.6.{ | 7.m.m.O.4 O H.H.",
"H.H.O w O.m.c.7.| } 7.M.F.F.F.F.F.F.F.F.F.F.F.F.F.F.F.F.F.F.F.F.F.F.F.F.F.F.F.F.F.F.F.F.F.F.F.A.F.F.F.A.M.0.} } 7.c.m.O.w O H.H.",
"H.H.O w #.C.C.a.| } 6.M.A.F.F.F.F.F.F.F.F.F.F.F.F.F.F.F.F.F.F.F.F.F.F.F.F.F.F.F.F.F.F.F.F.F.F.F.F.F.F.A.b.0.@.@.h.C.Z.#.w O H.H.",
"H.H.O e :.F.G.n.+.[ 7.M.A.F.F.F.F.F.F.F.F.F.F.F.F.F.F.F.F.F.F.F.F.A.F.F.F.F.F.F.F.F.F.F.F.F.F.F.F.F.F.A.M.q.<.5.v.G.G.:.e O H.H.",
"H.H.O i w.G.G.B.=.@.7.b.A.F.F.F.F.F.F.F.F.F.F.A.A.F.F.F.F.F.F.F.F.F.F.F.F.F.F.F.F.F.F.F.F.F.F.F.F.F.F.A.b.s.8.0.V.G.G.:.i o H.H.",
"H.H.O i w.G.G.V.3.,.s.M.A.F.F.F.F.F.F.F.F.F.F.F.F.F.F.F.F.F.F.F.F.F.F.F.F.F.F.F.F.F.F.F.F.F.F.F.F.F.F.A.M.g.0.j.A.G.G.w.i o H.H.",
"H.H.O u e.G.G.Z.h.7.f.c.A.F.F.F.F.A.F.F.F.F.F.F.F.F.F.F.F.F.A.F.F.F.F.F.F.F.F.F.F.F.F.F.F.F.F.F.F.F.A.C.c.k.s.b.F.G.G.e.i o H.H.",
"H.H.O u e.G.G.F.D.b.j.j.C.F.F.F.F.F.F.F.F.F.F.F.F.F.F.F.F.F.F.F.F.F.F.F.F.F.A.F.F.F.F.F.F.F.F.F.F.A.M.c.g.j.C.F.G.G.G.e.i o H.H.",
"H.H.O 7 ~ p.S.G.G.D.j.s.M.F.F.F.F.F.F.F.F.F.F.F.F.F.F.F.F.F.F.F.F.F.F.F.F.F.F.F.F.F.F.F.F.F.F.F.F.A.M.k.9.g.Z.G.G.S.p.~ 6 X H.H.",
"H.H.H.H.6 Z i.G.G.V.s.5.k.C.A.F.F.F.F.F.F.F.F.F.F.A.F.F.F.F.F.F.F.F.F.F.F.F.F.F.F.F.F.F.F.F.F.F.A.A.M.g.5.7.Z.G.G.i.Z 5 & H.H.H.",
"H.H.H.H.X 7 w.G.G.Z.7.5.f.M.A.F.F.F.F.F.F.F.F.F.F.F.F.F.F.F.F.F.F.F.F.F.F.F.F.F.F.F.F.F.F.F.F.F.F.A.M.f.3.7.V.G.G.w.7 . H.H.H.H.",
"H.H.H.H.X 7 w.G.G.Z.f.0.g.M.A.F.F.F.F.F.F.F.F.F.F.F.F.F.F.F.F.F.F.F.F.F.F.F.F.F.F.A.F.F.F.F.F.F.F.A.M.f.3.6.V.G.G.w.7 X H.H.H.H.",
"H.H.H.H.O u / N.F.D.b.j.g.l.C.F.F.F.F.F.F.F.F.F.F.F.F.F.F.F.F.F.F.F.F.A.F.F.F.F.F.F.F.F.F.F.F.F.F.Z.x.0.7.h.D.F.N./ 7 X H.H.H.H.",
"H.H.H.H.H.H.C ^ z.G.F.v.7.0.V.G.F.F.F.F.F.F.A.F.F.F.F.F.F.F.F.F.F.F.F.F.F.F.F.F.F.F.F.F.F.F.F.F.F.V.0.0.x.D.G.z.^ M , H.H.H.H.H.",
"H.H.H.H.H.H.9 B y.G.G.D.h.0.x.C.F.F.F.F.F.F.F.F.F.F.F.F.F.F.F.F.F.F.F.F.F.F.F.A.F.F.F.F.F.F.F.A.C.x.0.f.S.G.G.y.B > H.H.H.H.H.H.",
"H.H.H.H.H.H.# a t.G.G.G.D.v.a.a.C.F.F.F.F.F.F.F.F.F.F.F.F.F.F.F.F.F.F.F.F.F.F.F.F.F.F.F.F.F.F.C.a.a.v.D.G.G.G.t.a + H.H.H.H.H.H.",
"H.H.H.H.H.H.X u / N.S.G.G.D.h.7.x.C.C.Z.A.A.F.F.F.F.F.F.F.F.F.F.F.F.F.F.F.F.F.F.F.F.A.A.Z.C.C.x.a.f.S.G.G.F.N./ 7 . H.H.H.H.H.H.",
"H.H.H.H.H.H.H.H.C ^ N.G.G.G.Z.v.a.6.s.l.b.Z.F.F.F.F.F.F.F.F.F.F.F.F.F.F.F.F.F.F.F.A.Z.b.c.s.7.a.v.D.G.G.G.N.^ z : H.H.H.H.H.H.H.",
"H.H.H.H.H.H.H.H.t B / p.S.G.G.Z.h.6.s.l.M.Z.A.A.A.A.A.A.A.A.A.A.A.A.A.A.A.A.A.A.A.Z.Z.C.l.f.7.h.D.G.G.S.i./ z 8 H.H.H.H.H.H.H.H.",
"H.H.H.H.H.H.H.H.H., w A y.G.G.F.C.b.C.Z.F.F.Z.C.C.C.C.C.C.C.C.C.C.C.C.C.C.C.C.C.C.A.D.F.D.Z.V.D.G.G.G.p.A 6 ; H.H.H.H.H.H.H.H.H.",
"H.H.H.H.H.H.H.H.H.H.X , Q w.u.d.Z.G.G.G.G.G.Z.C.Z.C.Z.C.C.Z.C.C.C.Z.C.C.Z.Z.C.C.C.A.G.G.G.G.G.F.z.y.t.W 2   H.H.H.H.H.H.H.H.H.H.",
"H.H.H.H.H.H.H.H.H.H.H.% 3 a v ^ N.G.G.G.G.G.F.G.F.F.G.F.F.G.G.F.F.F.G.F.G.F.F.G.F.G.G.G.G.G.G.N.^ M p 6 & H.H.H.H.H.H.H.H.H.H.H.",
"H.H.H.H.H.H.H.H.H.H.H.H.X + > M / w.e.e.t.N.F.G.G.G.G.G.G.G.G.G.G.G.G.G.G.G.G.G.G.F.z.y.e.w.e./ z 1 @ X H.H.H.H.H.H.H.H.H.H.H.H.",
"H.H.H.H.H.H.H.H.H.H.H.H.H.H.H.: 7 u u a M ^ N.G.G.G.G.G.G.G.G.G.G.G.G.G.G.G.G.G.G.N.^ M a u 7 7 , H.H.H.H.H.H.H.H.H.H.H.H.H.H.H.",
"H.H.H.H.H.H.H.H.H.H.H.H.H.H.H.H.X X X + 1 M / e.e.w.w.w.:.w.w.w.w.w.w.w.w.w.w.e.e./ M > + X o X H.H.H.H.H.H.H.H.H.H.H.H.H.H.H.H.",
"H.H.H.H.H.H.H.H.H.H.H.H.H.H.H.H.H.H.H.H.H., 7 u u u u i u u u u 7 i i u i u u u i 7 , H.H.H.H.H.H.H.H.H.H.H.H.H.H.H.H.H.H.H.H.H.",
"H.H.H.H.H.H.H.H.H.H.H.H.H.H.H.H.H.H.H.H.H.H.X o o O X X o o X o o o X o X o X o X X H.H.H.H.H.H.H.H.H.H.H.H.H.H.H.H.H.H.H.H.H.H.",
"H.H.H.H.H.H.H.H.H.H.H.H.H.H.H.H.H.H.H.H.H.H.H.H.H.H.H.H.H.H.H.H.H.H.H.H.H.H.H.H.H.H.H.H.H.H.H.H.H.H.H.H.H.H.H.H.H.H.H.H.H.H.H.H.",
"H.H.H.H.H.H.H.H.H.H.H.H.H.H.H.H.H.H.H.H.H.H.H.H.H.H.H.H.H.H.H.H.H.H.H.H.H.H.H.H.H.H.H.H.H.H.H.H.H.H.H.H.H.H.H.H.H.H.H.H.H.H.H.H.",
"H.H.H.H.H.H.H.H.H.H.H.H.H.H.H.H.H.H.H.H.H.H.H.H.H.H.H.H.H.H.H.H.H.H.H.H.H.H.H.H.H.H.H.H.H.H.H.H.H.H.H.H.H.H.H.H.H.H.H.H.H.H.H.H.",
"H.H.H.H.H.H.H.H.H.H.H.H.H.H.H.H.H.H.H.H.H.H.H.H.H.H.H.H.H.H.H.H.H.H.H.H.H.H.H.H.H.H.H.H.H.H.H.H.H.H.H.H.H.H.H.H.H.H.H.H.H.H.H.H.",
"H.H.H.H.H.H.H.H.H.H.H.H.H.H.H.H.H.H.H.H.H.H.H.H.H.H.H.H.H.H.H.H.H.H.H.H.H.H.H.H.H.H.H.H.H.H.H.H.H.H.H.H.H.H.H.H.H.H.H.H.H.H.H.H.",
"H.H.H.H.H.H.H.H.H.H.H.H.H.H.H.H.H.H.H.H.H.H.H.H.H.H.H.H.H.H.H.H.H.H.H.H.H.H.H.H.H.H.H.H.H.H.H.H.H.H.H.H.H.H.H.H.H.H.H.H.H.H.H.H."
};
