/* XPM */
static char *result[] = {
/* columns rows colors chars-per-pixel */
"64 64 240 2 ",
"   c #1E0A00",
".  c #250E00",
"X  c #261000",
"o  c #2A1100",
"O  c #381E0C",
"+  c #3E0507",
"@  c #362213",
"#  c #5A031B",
"$  c #510B0E",
"%  c #63021B",
"&  c #67071E",
"*  c #771216",
"=  c #4B2B13",
"-  c #5A361C",
";  c #4A0026",
":  c #4C0128",
">  c #470025",
",  c #5A0424",
"<  c #591930",
"1  c #6C0B23",
"2  c #650923",
"3  c #72132C",
"4  c #751927",
"5  c #751636",
"6  c #701328",
"7  c #4E3928",
"8  c #553C2A",
"9  c #5C2F24",
"0  c #74212E",
"q  c #603F28",
"w  c #68273A",
"e  c #7B293B",
"r  c #6A3F37",
"t  c #59432D",
"y  c #5D4835",
"u  c #614D3D",
"i  c #634934",
"p  c #715134",
"a  c #74573C",
"s  c #6B492E",
"d  c #781E45",
"f  c #772B42",
"g  c #76354A",
"h  c #743955",
"j  c #743856",
"k  c #6D3250",
"l  c #614F42",
"z  c #6F5743",
"x  c #705B4C",
"c  c #96190E",
"v  c #861618",
"b  c #991B15",
"n  c #8F1B0E",
"m  c #A51E13",
"M  c #972415",
"N  c #AC230C",
"B  c #B6270B",
"V  c #A92417",
"C  c #BD2D13",
"Z  c #B92B1C",
"A  c #BF3015",
"S  c #8A182D",
"D  c #A21D22",
"F  c #91252C",
"G  c #A42B28",
"H  c #B92D23",
"J  c #BD3329",
"K  c #B73226",
"L  c #B13531",
"P  c #C32D17",
"I  c #C33115",
"U  c #CB3215",
"Y  c #C5351A",
"T  c #C9381C",
"R  c #D3391C",
"E  c #D3361B",
"W  c #C12D0F",
"Q  c #C92D2B",
"!  c #C62924",
"~  c #C93829",
"^  c #D43E24",
"/  c #D93D22",
"(  c #D33929",
")  c #CA3735",
"_  c #CC3334",
"`  c #8A683F",
"'  c #B84036",
"]  c #CB442D",
"[  c #DC4225",
"{  c #DD452B",
"}  c #D8452C",
"|  c #C74438",
" . c #DE4431",
".. c #D94A35",
"X. c #DF553A",
"o. c #E34629",
"O. c #E34A2E",
"+. c #E44728",
"@. c #E44C32",
"#. c #E54C35",
"$. c #EB5235",
"%. c #E4523B",
"&. c #EC553B",
"*. c #ED5A3E",
"=. c #E25237",
"-. c #F25C3F",
";. c #833547",
":. c #8C294C",
">. c #AA2A49",
",. c #901F47",
"<. c #CB3B44",
"1. c #825C42",
"2. c #8F5651",
"3. c #B84B51",
"4. c #8C7159",
"5. c #957658",
"6. c #8D694D",
"7. c #A07B4F",
"8. c #8E5B67",
"9. c #937761",
"0. c #976878",
"q. c #8B706A",
"w. c #AB7B64",
"e. c #B0576B",
"r. c #C84643",
"t. c #D64F4C",
"y. c #E65342",
"u. c #EB5544",
"i. c #ED5B43",
"p. c #EC5D4B",
"a. c #E45A47",
"s. c #F15E43",
"d. c #F15E4E",
"f. c #E4544D",
"g. c #EB624A",
"h. c #F26146",
"j. c #F2634A",
"k. c #F6674D",
"l. c #F36554",
"z. c #F56B5B",
"x. c #F36A57",
"c. c #F4745B",
"v. c #E86350",
"b. c #C95B68",
"n. c #D55A73",
"m. c #E25E6F",
"M. c #D5706E",
"N. c #E7696A",
"B. c #F56B69",
"V. c #F67565",
"C. c #F66D76",
"Z. c #FB737A",
"A. c #F37875",
"S. c #EB7073",
"D. c #DE6050",
"F. c #A98866",
"G. c #B89773",
"H. c #AE8E70",
"J. c #AF8E5F",
"K. c #D19276",
"L. c #ED8E7B",
"P. c #C7A77C",
"I. c #996C80",
"U. c #D06783",
"Y. c #FD7987",
"T. c #B8928E",
"R. c #B9A28A",
"E. c #B8A488",
"W. c #BDA4A5",
"Q. c #C29E86",
"!. c #D18E90",
"~. c #F89A85",
"^. c #F38C8B",
"/. c #CEB48D",
"(. c #D5B483",
"). c #D6B589",
"_. c #D9B98B",
"`. c #CDB296",
"'. c #D5B994",
"]. c #DBBD92",
"[. c #D3BC99",
"{. c #C4A98E",
"}. c #FCA89B",
"|. c #CBB9A8",
" X c #D5BAAB",
".X c #D1BABA",
"XX c #CDB4B1",
"oX c #DDC29A",
"OX c #DBC096",
"+X c #E2C79A",
"@X c #CBC3BA",
"#X c #CBC2B7",
"$X c #DAC9B6",
"%X c #D3C3A9",
"&X c #E5CDA2",
"*X c #E5CDAA",
"=X c #E7D1AC",
"-X c #EAD4AD",
";X c #EEDAB4",
":X c #EEDBB9",
">X c #E9D5B4",
",X c #F1DEBC",
"<X c #F1D8B5",
"1X c #F1D7AE",
"2X c #F4E0BE",
"3X c #D2BDC1",
"4X c #CCC6C1",
"5X c #D9C9C7",
"6X c #DAD2CB",
"7X c #DECED0",
"8X c #EADAC3",
"9X c #E3D6C0",
"0X c #E8DAD1",
"qX c #E9D7C4",
"wX c #EEE0CA",
"eX c #F5E2C3",
"rX c #FAE3C6",
"tX c #F3E5CA",
"yX c #FAE5CA",
"uX c #F7E9CC",
"iX c #FAE9CC",
"pX c #EAE1D8",
"aX c #F2E6D4",
"sX c #F5E9D4",
"dX c #FBEDD3",
"fX c #F5ECDC",
"gX c #F9EEDB",
"hX c #F2E7DB",
"jX c #FEF1D5",
"kX c #FCF2DB",
"lX c #FFFADC",
"zX c #F7EFE6",
"xX c #FCF3E4",
"cX c #FCF6EC",
"vX c #FFFAEC",
"bX c #F9F3E7",
"nX c #FFFCF4",
"mX c #FFFFFC",
"MX c #FBF7F0",
"NX c None",
/* pixels */
"NXNXNXNXNXNXNXNXNXNXNXNXNXNXNXNXNXNXNXNXNXNXNXNXNXNXNXNXNXNXNXNXNXNXNXNXNXNXNXNXNXNXNXNXNXNXNXNXNXNXNXNXNXNXNXNXNXNXNXNXNXNXNXNX",
"NXNXNXNXNXNXNXNXNXNXNXNXNXNXNXNXNXNXNXNXNXNXNXNXNXNXNXNXNXNXNXNXNXNXNXNXNXNXNXNXNXNXNXNXNXNXNXNXNXNXNXNXNXNXNXNXNXNXNXNXNXNXNXNX",
"NXNXNXNXNXNXNXNXNXNXNXNXNXNXNXNXNXNXNXNXNXNXNXNX: : : : : : NXNXNXNXNXNXNXNX: : ; ; ; ; NXNXNXNXNXNXNXNXNXNXNXNXNXNXNXNXNXNXNXNX",
"NXNXNXNXNXNXNXNXNXNXNXNXNXNXNXNXNXNXNXNXNXNXNXNX2 # & 2 , , NXNXNXNXNXNXNXNX1 1 3 3 3 3 NXNXNXNXNXNXNXNXNXNXNXNXNXNXNXNXNXNXNXNX",
"NXNXNXNXNXNXNXNXNXNXNXNXNXNXNXNXNXNXNXNXNXNX: 2 v n n v 4 6 : ; ; ; > > $ = N Z ) | | G 3 : NXNXNXNXNXNXNXNXNXNXNXNXNXNXNXNXNXNX",
"NXNXNXNXNXNXNXNXNXNXNXNXNXNXNXNXNXNXNXNXNXNX: , v N N B G F ,.d d w 3 4 * M T O.s.h.h.| 3 > NXNXNXNXNXNXNXNXNXNXNXNXNXNXNXNXNXNX",
"NXNXNXNXNXNXNXNXNXNXNXNXNXNXNXNXNXNXNXNXNXNX: , 4 M Z T ..t.n.U.U.n.r.~ ] ] =.*.h.k.k.| 3 > NXNXNXNXNXNXNXNXNXNXNXNXNXNXNXNXNXNX",
"NXNXNXNXNXNXNXNXNXNXNXNXNXNXNXNXNXNXNXNXNXNX: , S G ~ { i.z.Z.^.Y.C.j.$.$.*.x.x.h.s.*.| 3 > NXNXNXNXNXNXNXNXNXNXNXNXNXNXNXNXNXNX",
"NXNXNXNXNXNXNXNXNXNXNXNXNXNXNXNXNXNXNXNXNXNX> 6 L ..=.p.h.k.z.z.B.l.j.-.s.l.A.A.g.$.+.K 6 > NXNXNXNXNXNXNXNXNXNXNXNXNXNXNXNXNXNX",
"NXNXNXNXNXNXNXNXNXNXNXNXNXNXNXNXNXNXNXNXNXNX2 S ) -.h.h.g.h.h.h.h.h.h.h.g.x.A.S.%.o./ K 6 > NXNXNXNXNXNXNXNXNXNXNXNXNXNXNXNXNXNX",
"NXNXNXNXNXNXNXNXNXNXNXNXNXNXNXNX1.1.1.s < 2 b ! =.h.s.h.h.h.h.h.h.h.h.h.h.j.p.y.[ [ $.| 6 < s a NXNXNXNXNXNXNXNXNXNXNXNXNXNXNXNX",
"NXNXNXNXNXNXNXNXNXNXNXNXNXNXNXNX5.9.F.8.w 1 H +.*.k.z.c.V.c.j.*.s.j.x.z.j.s.-.O.( ^ =.L 6 < 2.F.NXNXNXNXNXNXNXNXNXNXNXNXNXNXNXNX",
"NXNXNXNXNXNXNXNXNXNXNXNX= - p 7.P.[.9XW.k 1 J $.-.x.Z.^.}.~.x.$.$.d.C.Y.l.s.s.%.Q P Z M $ 9 H.P.5.p - = NXNXNXNXNXNXNXNXNXNXNXNX",
"NXNXNXNXNXNXNXNXNXNXNXNXp 1.J.G.oX:X7XW.;.S ~ p.l.B.Y.^.}.~.v.$.$.p.C.C.l.d.k.y._ ! C n $ s E.*XE.5.1.p NXNXNXNXNXNXNXNXNXNXNXNX",
"NXNXNXNXNXNXNXNXNXNX= s F./.oX9XxX5X0.;.G ~ #.l.C.Y.B.B.V.c.u.$.$.&.u.d.j.j.j.%.^ E / K & g .XbXpX$X`.H.p = NXNXNXNXNXNXNXNXNXNX",
"NXNXNXNXNXNXNXNXNXNXp 4.%XuXvXmXmX3Xj % Z +.y.l.Y.C.p.$.%.#.#.o.{ O.#.y.s.s.h.&.R / u.r.4 h XXvXnXvXyX[.5.p NXNXNXNXNXNXNXNXNXNX",
"NXNXNXNXNXNXNXNX= p F.[.wXcXnXnXmX4Xj 1 J &.s.p.f.t.<.Q Q Q Q Q Q _ ) y.p.h.i.@.R ..V.b.5 f {.yXvXnXvXwX[.F.p = NXNXNXNXNXNXNXNX",
"NXNXNXNXNXNXNXNXp 5.[.tXcXvXcXkXhXXXk 2 J $.-.p.t..._ Q Q _ _ Q Q _ r.f.i.*.#.@.X.D.V.e.5 w G.-XuXbXnXvXtX[.4.a NXNXNXNXNXNXNXNX",
"NXNXNXNXNXNX1.5.G.'.wXvXnXcXtX-X+XH.d 2 Z +.$.&.a.u.y.X.y.%.y.y.u.y.a.p.h.*./ %.L.L.g.K $ 9 F._.=XtXbXnXvXwX[.G.5.1.NXNXNXNXNXNX",
"NXNXNXNXNXNX1.F.[.uXcXnXcXtX&XOX_.G.8.F G H ( @.*.j.x.N.B.l.j.s.s.s.-.*.u.=.%.D.L.L.| n $ 8 F.].+X-XwXgXMXvXtX[.F.1.NXNXNXNXNXNX",
"NXNXNXNXNXNXJ.H.>XcXnXbXyX&X_._.+X*X XT.f 4 D Q #.d.A.Y.^.S.d.i.&.$.O.+.[ ..N.M.b.L 4 # + q P.1X-X+XOX*XfXnXcX:XG.7.NXNXNXNXNXNX",
"NXNXNXNXNXNXJ./.aXnXvXaX*X].).].<XiXdX Xh # b P ( y.N.S.S.N.y.( o. ./ E U } N.D.J D 3 $ + r `.rX1X+X(.OX:XzXMXaX/.J.NXNXNXNXNXNX",
"NXNXNXNXX t G.&XgXcXyX=X_.(.+X<XyXkXlX Xj 2 D ! Q Q <.<.<.<.Q Q Q Q ! ! B I } ..{ ~ V v # h  XdX1X+XoXOX'.=XzXkX-XG.t X NXNXNXNX",
"NXNXNXNX= a {.uXcXgX=X]._.].<XiXkXsX.XT.;.v P / _ Q ! ! Q ! Q Q Q Q Q Q ) ~ ^ { $.#.T V * f T.$X-X;X1X&XP.'.aXvXuX{.a = NXNXNXNX",
"NXNXNXNX` F.>XcXnXhXOX_.=X2XtXdXlX X0.F G Z { #.%.%.#.(  . . .O. .#.%.v.m.C.f.&.s.*.O.^ V v e 0.%XiXyX>X(.'.aXnXvX$XJ.6.NXNXNXNX",
"NXNXNXNXJ./.aXmXnXhXOXOX:XjXjXeX$XT.;.4 A [ o.@.=.&.&.$.$.$.$.$.$.$.=.a.C.N.p.*.s.k.j.u.^ V % k |.jXjX:X].oXfXnXmXsX/.J.NXNXNXNX",
"NXNXo i G.-XfXmXnXfX=X&XeXjXdX$X8.;.D Z [ o.R T Y ^ @.$.$.$.$.$.$.@.^ A ~ ~ ^  .*.z.Z.B.y.K 1 h  XdXjX2X&X=XfXnXnXfX=XG.i o NXNX",
"NXNXo t E.uXcXvXcXsX:X;XrXjXjX|.g % Z +.$.=.*.X.Y Y ^ O.O.O.O.{ O.( ) ~ K I E [ ..v.C.C.p.J 1 g  XdXjXtX:X:XdXbXnXcXuXE.t o NXNX",
"NXNXo u %XvXnXxXtX;XeXtXuXjXxXXXh 1 J $.$.g.~.L.g.^ T U R R I I I ) m.N.a.@.O.[ T ] y.u.o.H & h XXkXjXiXtX2X:XtXxXnXvX|.u o NXNX",
"NXNXo u #XmXmXfX=X&XeXdXdXlXvX.Xh 1 ! #.$.x.~.~.x.} I B U U C N N ~ N.Y.V.c.c.g.T Y [ [ E N & h .XvXkXdXdXeX&X=XfXmXmX@Xu o NXNX",
"NXNXo l #XmXnXaXoX].:XjXkXvXvX.Xj & Z +.&.k.c.c.k.=.A B U U B B B Y a.V.Y.^.}.L.g.^ U W W m % h 3XnXvXkXjX:X].oXhXnXmX@Xu o NXNX",
"NXNXo u #XmXmXaX'.).:XjXxXvXnX7X0.;.G H { h.x.x.j.X.Y C U U I B B I } a.N.K.~.L.a.R C B c F g 0.7XnXvXxXkX;X).'.aXnXnX@Xl o NXNX",
"NXNXX l @XmXnXaX'.).:XjXcXnXnXzX7XT.;.v ! y.C.Y.l.O.R U E U U U U Y Y Y ] ] | ] T I B c * g W.7XzXnXMXvXjX:X).'.aXnXnX@Xl X NXNX",
"NXNXo u #XmXmXaX'.).:XkXcXnXnXmXmX5Xj 2 v _ n.U.y.+.[ R R [ R [ R T B B N N V M b b m v % h .XvXMXnXnXcXgX:X).'.hXnXmX@Xl . NXNX",
"NXNXX l #XnXnXaX'._.:XkXcXnXnXnXmX5Xj : 2 3 ,.>._ / +.O.O.O.O.@.$.[ C N B m S S 1 2 & , ; k {.iXvXnXnXcXkX:X).'.aXmXnX@Xu X NXNX",
"NXNXX l @XmXmXaX'.).:XkXcXnXnXzX7XW.:.3 3 5 ,.L ! R #.&.&.$.O.} o.[ I C P K >.,.3 1 2 # # f G.>XdXnXnXcXjX,X].oXfXnXmX@Xl . NXNX",
"NXNXo l 4XmXmXhX'.).<XgXcXnXnX7XI.:.3.| r.r.t.| A Y =.h.h.=.^ C C I U R ..%.t.r.H V m v # e w.+XtXxXvXcXkXeX*X-XzXmXmX4Xl X NXNX",
"NXNXo l 4XmXmXzXoX].,XkXMXnXmX3Xk 1 | k.z.l.k.$.T Y =.h.*.=.T C A P R O.d.x.j.&.+.E C c & w w._.;XiXvXvXkXeX1X,XbXmXmX4Xl X NXNX",
"NXNXo l 4XmXmXzX>X+XeXgXcXnXnX3Xh 1 ) l.Y.Z.j.O.T R @.$.{ [ { { { { +.u.C.Z.j.$.$.[ P c % w w.(.+X2XxXvXkXrX2XrXMXmXmX4Xl . NXNX",
"NXNXo u @XmXmXcXtX,XrXdXcXmXnX3Xh & J s.B.B.y.+.R E } [ E R O.*.*.&.&.d.C.C.d.i.p.%.Y c 2 w w.(.+X:XfXxXjXtX2XiXMXmXmX@Xu X NXNX",
"NXNXo i |.nXmXmXMXzXrXyXcXnXnX3Xh & H / .. ./ / E U U P C T =.j.s.h.i.h.k.j.d.x.A.c.~ c % w w.(.oX1XuXjXrX2XrXgXnXmXvX%Xy X NXNX",
"NXNXo y G.$XzXmXmXMXrX,XjXnXnX7X0.F D Z P U R / @.] V c c V } %.%.i.l.c.L.c.h.i.N.b.G v 3 2.F.(.+X-XuXrX2X,XdXcXmXzX@XT.t   NXNX",
"NXNXNXNXl x 6XmXmXcX,X;XuXxXMXhX|.w.e * m U +.y.S.b.S 2 # * H T T } S.^.}.~.a./ ] G 4 0 7.J.P.P.oX1XuXeX1X<XzXnXmX6Xq.t @ NXNXNX",
"NXNXNXNXX y #XmXmXbX,X;XeXdXvXkXtX`.2.3 v m K r.b.e.;.w w 0 v c c G e.U.!.M.' m c v 4 2.K.P.P.].&X;X2X2X,XtXMXmXmX@Xy   NXNXNXNX",
"NXNXNXNXX y |.nXmXMXsXeX2XrXdXkXxX8XQ.2.0 % & 3 5 g 5.w.F.2.4 % # & 5 d f w 6 % % 4 2.G._.+X+X+X2X2X;X:XsXbXnXmXvX|.y . NXNXNXNX",
"NXNXNXNXX l E.8XMXnXcXdXrX2XeXdXcXkX-XQ.8.h h h j 8.Q.].+X{.8.j j z j j j j j j h 8.Q.&X-X<X:X,X2X2X;X2XbXmXmXMXwXE.y . NXNXNXNX",
"NXNXNXNXNXNX5.R.pXmXnXvXdXeX1X2XxXnXxX0X5X3X3X3X3X5X0XhXsXaX5X3X3X3X3X3X3X3X3X3X$X5X0XgXkXbXxXsX:X;X,XuXMXmXmXpXE.4.t NXNXNXNXNX",
"NXNXNXNXNXNXi 9.6XmXmXnXxXyX;X:XsXbXnXnXmXmXnXnXnXnXnXnXnXnXnXmXmXmXnXnXnXmXnXmXnXnXnXmXnXnXbXsX;X:XuXxXnXmXmX6X5.8 NXNXNXNXNXNX",
"NXNXNXNXNXNXO z |.vXmXmXnXxXiXeX:XeXbXnXmXnXnXnXnXnXnXnXnXnXmXnXnXnXmXnXnXnXnXnXnXnXnXnXnXbXtX:X2XuXlXnXmXmXvX%Xz O NXNXNXNXNXNX",
"NXNXNXNXNXNXX i R.8XbXnXnXMXxXuX:X:XuXxXxXbXcXcXnXnXnXnXMXnXnXnXnXnXnXnXnXnXnXMXnXcXxXxXxXuX;X:XuXxXnXnXnXbX8XE.y   NXNXNXNXNXNX",
"NXNXNXNXNXNXNXNX5.E.:XcXnXnXnXcXuX2X:X:XeXiXkXcXnXnXnXnXMXnXMXmXnXnXnXnXnXnXmXMXcXkXdXeX:X:X2XiXbXnXnXnXbX9XE.4.7 NXNXNXNXNXNXNX",
"NXNXNXNXNXNXNXNXa 4.E.%XfXnXmXnXxXuX,X:XeXiXdXgXxXxXxXcXxXxXxXzXxXxXxXxXxXxXxXxXgXdXiXeX:X,XsXbXmXmXnXhX$XE.6.s NXNXNXNXNXNXNXNX",
"NXNXNXNXNXNXNXNXNX8 t 4.$XvXnXnXnXbXgXzXcXxXyXrXrXrXrXrXrXrXrXrXyXyXrXrXrXrXrXrXrXyXxXcXcXcXMXmXmXmXvX$X4.t 7 NXNXNXNXNXNXNXNXNX",
"NXNXNXNXNXNXNXNXNXNX  t H.#X$XpXbXnXmXmXmXnXgXyXrXyXyXyXyXyXyXrXyXyXyXyXyXrXyXyXrXgXnXmXmXmXmXMXpX6X#XH.t   NXNXNXNXNXNXNXNXNXNX",
"NXNXNXNXNXNXNXNXNXNXNX@ t z 4.R.8XvXmXmXmXmXnXcXMXMXcXMXMXMXMXMXMXMXcXMXMXMXMXMXMXMXmXmXmXmXvX8XR.9.z t @ NXNXNXNXNXNXNXNXNXNXNX",
"NXNXNXNXNXNXNXNXNXNXNXNX. O t 4.E.|.@X5X7X0XMXmXmXmXmXmXmXmXmXmXmXmXmXmXmXmXmXmXmXMXpX7X4X@X|.E.4.q O   NXNXNXNXNXNXNXNXNXNXNXNX",
"NXNXNXNXNXNXNXNXNXNXNXNXNXNXNX7 y y l x 9.R.8XvXmXmXmXmXmXmXmXmXmXmXmXmXmXmXmXmXvX8XR.5.x l i y 7 NXNXNXNXNXNXNXNXNXNXNXNXNXNXNX",
"NXNXNXNXNXNXNXNXNXNXNXNXNXNXNXNX. . . O q 4.R.|.@X4X4X4X4X4X4X4X4X4X4X4X4X4X4X@X|.E.4.t O . . . NXNXNXNXNXNXNXNXNXNXNXNXNXNXNXNX",
"NXNXNXNXNXNXNXNXNXNXNXNXNXNXNXNXNXNXNXNXNX7 y y l l l l l l l l l l l l l l l l u y 7 NXNXNXNXNXNXNXNXNXNXNXNXNXNXNXNXNXNXNXNXNX",
"NXNXNXNXNXNXNXNXNXNXNXNXNXNXNXNXNXNXNXNXNXNX. X X . . . X . X . . . . . X X . . X . NXNXNXNXNXNXNXNXNXNXNXNXNXNXNXNXNXNXNXNXNXNX",
"NXNXNXNXNXNXNXNXNXNXNXNXNXNXNXNXNXNXNXNXNXNXNXNXNXNXNXNXNXNXNXNXNXNXNXNXNXNXNXNXNXNXNXNXNXNXNXNXNXNXNXNXNXNXNXNXNXNXNXNXNXNXNXNX",
"NXNXNXNXNXNXNXNXNXNXNXNXNXNXNXNXNXNXNXNXNXNXNXNXNXNXNXNXNXNXNXNXNXNXNXNXNXNXNXNXNXNXNXNXNXNXNXNXNXNXNXNXNXNXNXNXNXNXNXNXNXNXNXNX",
"NXNXNXNXNXNXNXNXNXNXNXNXNXNXNXNXNXNXNXNXNXNXNXNXNXNXNXNXNXNXNXNXNXNXNXNXNXNXNXNXNXNXNXNXNXNXNXNXNXNXNXNXNXNXNXNXNXNXNXNXNXNXNXNX",
"NXNXNXNXNXNXNXNXNXNXNXNXNXNXNXNXNXNXNXNXNXNXNXNXNXNXNXNXNXNXNXNXNXNXNXNXNXNXNXNXNXNXNXNXNXNXNXNXNXNXNXNXNXNXNXNXNXNXNXNXNXNXNXNX"
};
