/* XPM */
static char *result[] = {
/* columns rows colors chars-per-pixel */
"64 64 182 2 ",
"   c #250C00",
".  c #280F00",
"X  c #2A1101",
"o  c #331804",
"O  c #321704",
"+  c #3D210C",
"@  c #46260E",
"#  c #49260B",
"$  c #492C16",
"%  c #502E14",
"&  c #4C311D",
"*  c #5C3A1E",
"=  c #55331A",
"-  c #553A23",
";  c #5A4535",
":  c #5C493C",
">  c #5A4637",
",  c #69452B",
"<  c #714B2F",
"1  c #664B37",
"2  c #7D5A3C",
"3  c #795337",
"4  c #5F4D41",
"5  c #614F42",
"6  c #665244",
"7  c #695648",
"8  c #6F5A4C",
"9  c #6B5443",
"0  c #755B46",
"q  c #795F4B",
"w  c #715949",
"e  c #79604E",
"r  c #786150",
"t  c #805A3E",
"y  c #8A5E3D",
"u  c #835D43",
"i  c #946A4B",
"p  c #846A55",
"a  c #846956",
"s  c #9B765C",
"d  c #936A4C",
"f  c #A37855",
"g  c #AD7949",
"h  c #8F7562",
"j  c #817166",
"k  c #917664",
"l  c #997C66",
"z  c #9C7F6A",
"x  c #967A66",
"c  c #887B71",
"v  c #9F826D",
"b  c #9C8878",
"n  c #A3846E",
"m  c #A78667",
"M  c #B38B6D",
"N  c #A18571",
"B  c #AA8C76",
"V  c #B48E70",
"C  c #AC927D",
"Z  c #B49074",
"A  c #BC9373",
"S  c #BE977A",
"D  c #B69379",
"F  c #BC9168",
"G  c #C99C75",
"H  c #C19A7D",
"J  c #C99E7C",
"K  c #CAA17F",
"L  c #DEAE7E",
"P  c #D5A679",
"I  c #E9B67F",
"U  c #AC9585",
"Y  c #B49A83",
"T  c #B59D8B",
"R  c #BCA78D",
"E  c #AAA19A",
"W  c #BAA494",
"Q  c #B7A293",
"!  c #B6ABA3",
"~  c #BAACA2",
"^  c #BFB1A7",
"/  c #BEB1A9",
"(  c #CAA383",
")  c #C9A78C",
"_  c #CDAB8E",
"`  c #D9AC81",
"'  c #DFB185",
"]  c #CBAB92",
"[  c #CFB29C",
"{  c #D0B49E",
"}  c #E1B286",
"|  c #E9B781",
" . c #EAB883",
".. c #E0B388",
"X. c #EABB8B",
"o. c #E8BF95",
"O. c #C3B3A6",
"+. c #C2B6AD",
"@. c #CEBCA6",
"#. c #D2B6A0",
"$. c #D6B9A4",
"%. c #C5BBB1",
"&. c #CEBFB4",
"*. c #EDC397",
"=. c #EDC59B",
"-. c #E6CD9F",
";. c #DDC4AA",
":. c #DBC7AA",
">. c #CDC1B6",
",. c #D9C4B4",
"<. c #DDCABD",
"1. c #E6CDA0",
"2. c #EDCCA5",
"3. c #ECCDAC",
"4. c #E1C9AC",
"5. c #F0CCA6",
"6. c #F1CDA8",
"7. c #EAD0A5",
"8. c #EBD4AB",
"9. c #F2D4AE",
"0. c #E1CDBC",
"q. c #ECD7B1",
"w. c #ECD8B2",
"e. c #E4D2BB",
"r. c #EBD5BB",
"t. c #EFDDBC",
"y. c #F3D6B3",
"u. c #F2DBB7",
"i. c #F5DDBC",
"p. c #F5E1BF",
"a. c #CBC6C2",
"s. c #CEC8C5",
"d. c #D1CBC6",
"f. c #DECEC3",
"g. c #D1CCC8",
"h. c #D7D1CC",
"j. c #DBD3CD",
"k. c #DFD8CF",
"l. c #DDD6D2",
"z. c #DDD9D6",
"x. c #E1CEC1",
"c. c #EAD5C2",
"v. c #ECDAC3",
"b. c #E3D9CE",
"n. c #ECDECC",
"m. c #E4D5C5",
"M. c #F6DFC1",
"N. c #E0D7D2",
"B. c #E1D8D2",
"V. c #EADED5",
"C. c #E8DFD8",
"Z. c #EFE0CC",
"A. c #F6E2C3",
"S. c #F6E4CA",
"D. c #F9E6CD",
"F. c #F6E9CD",
"G. c #F9E6C8",
"H. c #EEE1D6",
"J. c #EDE2DA",
"K. c #F0E2D1",
"L. c #F7EAD0",
"P. c #FBEBD4",
"I. c #F4E6DA",
"U. c #F5EADC",
"Y. c #F8EADB",
"T. c #F8E7D4",
"R. c #FDF1DC",
"E. c #EAE5E1",
"W. c #EEE8E4",
"Q. c #F0E7E1",
"!. c #F3EBE5",
"~. c #FAEFE0",
"^. c #F5EEE9",
"/. c #F6F0E7",
"(. c #FDF4E4",
"). c #FDF6EA",
"_. c #FEF9ED",
"`. c #F7F2E9",
"'. c #FFFBF3",
"]. c #FFFFFD",
"[. c #F6F5F5",
"{. c None",
/* pixels */
"{.{.{.{.{.{.{.{.{.{.{.{.{.{.{.{.{.{.{.{.{.{.{.{.{.{.{.{.{.{.{.{.{.{.{.{.{.{.{.{.{.{.{.{.{.{.{.{.{.{.{.{.{.{.{.{.{.{.{.{.{.{.{.{.",
"{.{.{.{.{.{.{.{.{.{.{.{.{.{.{.{.{.{.{.{.{.{.{.{.{.{.{.{.{.{.{.{.{.{.{.{.{.{.{.{.{.{.{.{.{.{.{.{.{.{.{.{.{.{.{.{.{.{.{.{.{.{.{.{.",
"{.{.{.{.{.{.{.{.{.{.{.{.{.{.{.{.{.{.t 2 t t t t t t t t 2 t t t t t t t t t t t t t 2 u t t {.{.{.{.{.{.{.{.{.{.{.{.{.{.{.{.{.{.",
"{.{.{.{.{.{.{.{.{.{.{.{.{.{.{.{.{.{.v N N N N N N N N N N N N N N N N N N N N N N N N v N v {.{.{.{.{.{.{.{.{.{.{.{.{.{.{.{.{.{.",
"{.{.{.{.{.{.{.{.{.{.{.{.t t t 2 3 v &.B.B.l.B.B.B.B.l.N.N.B.B.B.N.N.N.l.B.l.N.B.l.B.B.B.B.>.v 3 2 t 2 u {.{.{.{.{.{.{.{.{.{.{.{.",
"{.{.{.{.{.{.{.{.{.{.{.{.v N N n n Q H.].'._._._.).)._._._._.[._.)._._._._.)._._._.)._.'.].H.Q v n N N v {.{.{.{.{.{.{.{.{.{.{.{.",
"{.{.{.{.{.{.{.{.% = < v &.B.B.l.l.V.Y.P.A.t.t.t.t.t.t.t.t.t.t.t.v.i.t.t.t.t.t.t.t.t.i.A.P.Y.V.l.l.B.N.&.v < = % {.{.{.{.{.{.{.{.",
"{.{.{.{.{.{.{.{.q a x Q H.].'._._.(.D.i.7.-.-.-.1.1.1.1.1.1.1.1.1.1.1.1.1.1.1.1.-.-.-.8.u.D.(._._.'.].H.Q x a q {.{.{.{.{.{.{.{.",
"{.{.{.{.{.{.# 0 ~ h.l.V.Y.P.A.p.i.t.8.8.7.1.1.1.1.1.-.-.1.1.1.1.1.1.1.1.-.1.-.-.1.-.1.7.8.9.t.t.p.A.P.Y.V.k.h.^ 0 # {.{.{.{.{.{.",
"{.{.{.{.{.{.0 b b.].'.(.D.u.7.-.-.1.7.7.8.q.w.w.w.8.w.w.q.q.q.q.q.q.q.q.q.q.w.w.q.w.w.8.8.7.-.-.-.8.u.D.(.'.].b.b 0 {.{.{.{.{.{.",
"{.{.{.{.# 0 ^ k.Y.P.A.u.8.8.7.1.-.7.y.u.S.L.L.F.L.L.L.L.L.L.L.L.L.L.L.L.L.L.L.L.L.F.L.F.u.9.7.-.-.1.8.8.t.A.P.P.b.! 0 # {.{.{.{.",
"{.{.{.{.e b k._.P.u.8.1.7.8.8.8.w.u.A.L.(.(.).(.(.).(.).(.).(.(.).(.(.(.(.).(.(.(.).).R.D.A.t.q.q.8.8.1.-.7.u.P.'.b.b q {.{.{.{.",
"{.{.u v +.k.U.P.p.7.7.7.q.u.A.G.F.P.R.)._._._.'._._._._._._.'._._._._.'._._.'._._._._._._.(.P.F.S.p.p.8.7.7.7.p.P.U.b.+.z 2 {.{.",
"{.{.3 l j.'.R.p.8.1.7.9.p.G.P.R.(._.'.'.'.'.'.'.'.'.'.'.'.'.'.'.'.'.'.'.'.'.'.'.'.'.'.'.'._.).(.R.P.G.p.9.2.-.8.p.R.].B.z 3 {.{.",
"{.{.* p :.(.P.A.8.7.9.p.D.R.)._.'._.'.'.'.'.'.'.'.'.'.'.'.'.'.'.'.'.'.'.'.'.'.'.'.'.'.'.'.'.'._._.(.R.D.p.9.7.8.u.P.].h.a * {.{.",
"{.{.+ 3 :.R.P.A.8.7.u.G.R.).'.'.'.'.'.'.'.'.'.'.'.'.'.'.'.'.'.'.'.'.'.'.'.'.'.'.'.'.'.'.'.'.'.'.'._._.R.G.u.8.7.u.P.'.g.q @ {.{.",
"{.{.o 6 >.'.R.A.8.8.A.P.(.'.'.'.'.'.'.'.'.'.'.'.'.'.'.'.'.'.'.'.'.'.'._.'.'.'.'.'.'.'.'.'.'.'.'.'.'.'.(.P.p.8.8.p.R.].a.7 O {.{.",
"{.{.X 5 a.]._.F.q.8.S.(._.'.'.'.'.'.'.'.'.'.'.'.'.'.'.'.'.'.'.'.'.'.'.'.'.'.'.'.'.'.'.'.'.'.'.'.'.'.'.'.(.S.8.q.F._.].a.5 X {.{.",
"{.{.X 6 a.].].R.w.w.Y.'.'.'.'.'.'.'.'.'.'.'.'.'.'.'.'.'.'._.'.'.'.'.'.'.'.'.'.'.'.'.'.'.'.'.'.'.'.'.'.'._.Y.w.w.R.].].a.5 X {.{.",
"{.{.X : %.'.].`.t.t.R.'.'.'.'.'.'.'.'.'.'.'.'.'.'.'.'.'.'.'.'.'.'.'.'.'.'.'.'.'.'.'.'.'.'.'.'.'.'.'.'.'.].~.u.i.`.].'.%.1 X {.{.",
"{.{.X ; R L.'._.A.M.(.'.'.'.'.'.'.'.'.'.'.'.'.'.'.'.'.'.'.'.'.'.'.'.'.'.'.'.'.'._.'.'.'.'.'.'.'.'.'.'.'.'.(.M.A._.'.L.R ; X {.{.",
"{.{.X - m :.`.'.Y.T.(.'.'.'.'.'.'.'.'.'.'.'.'.'.'.'.'.'.'.'.'.'.'.'.'.'.'.'.'.'.'.'.'.'.'.'.'.'.'.'.'.'.'.(.T.Y.'.(.:.m - X {.{.",
"{.{.O $ 2 Y J.].'._.(.)._.'.'.'.'.'.'.'.'.'.'.'.'.'.'.'.'.'.'.'.'.'.'.'.'.'.'.'.'.'.'.'.'.'.'.'.'.'.'.'.(.(._.'.].J.Y 2 & X {.{.",
"{.{.X & r T <.W.].]._.)._._._._._._._.'.'.'.'.'.'.'.'.'.'.'.'.'.'.'.'.'.'.'.'.'.'._.'.'.'.'._._._._._._.)._.].].W.<.Q r & O {.{.",
"{.{.. > ! f.) [ W.].].'.).(.(.(.(.(._.].'.'.'.'.'.'.'.'.'.'.'.'.'.'.]._.'.'.'.'.'.'.'.'.'.'.(.(.(.(.(._.'.].].Q.[ ] f.! > X {.{.",
"{.{.6 r %.f.] ) f.V.I.~.(.).).).(._.(._._._._._._._._._._._._._._.)._._._._._._._._._._._.)._.).(.).).(.Y.I.J.<.) ] f.+.6 X {.{.",
"& r / / U T <.x.] J ' 5.~.].].].].'._.(.(.(.(.(.(.(.(.(.R.(.(.(.(.(.(.(.(.(.(.(.(.(.(.(.(.).'.].].].].~.6.} J ] f.d.T v {.{.{.{.",
"@ r h.W.V B C.^.#.G L *.M.Y.T.Y.I.~.(.(.).).(.(.).).).).).).).(.).(._.(.)._.(.)._.(.).(.).(.Y.Y.Y.Y.Y.M.*.L G #.^.l.k , {.{.{.{.",
"o 7 g.U.` ` I.].Q.V.M.y.=.X.X.X.X.5.~.].].].].].'.].].'.].].].].].].].].].].'.].].'.].].].~.5.X.X.X.X.*.y.A.V.!.].g.8 + {.{.{.{.",
". 5 s.).9.=.c.Q.].].'.T.=.| I I | o.M.Y.Y.Y.Y.Y.T.Y.Y.Y.Y.T.Y.Y.T.Y.T.I.Y.Y.Y.Y.Y.Y.Y.Y.Y.M.*.| I I I =.L.'.].].^.~ ;   {.{.{.{.",
"X 4 a.].).c._ { Q.].]._.D.i.M.A.M.y.=.X.X.X.X.X.X.X.X.X.X.X.X.X.X.X.X.X.X.X.X.X.X.X.X.X.X.=.y.A.i.p.i.D.'.].].^.$.s & . {.{.{.{.",
". 6 / W.].E.] ( <.H.I.Y.)._._._._.T.=.I I I | |  . . .I | | | | | | | | | | | I | | | I I =.L._._._._.).Y.I.H.,.M i 9 5 {.{.{.{.",
"{.{.l W E.'.n.4.) J ' 2.~.].].].].'.L.i.M.i.p.i.M.i.i.i.M.M.M.i.M.i.i.M.A.i.M.M.i.M.M.i.i.D._.].].].].(.2.' ( M d l O.! r % {.{.",
"{.{., k h.].'.n._ G ` =.c.J.I.I.Y.Y.)._._._._._._._._._._._._._._._.)._._._._._._._._._._._.Y.I.Y.I.V.c.=...( M i B C.h.r @ {.{.",
"{.{.+ w g.].].`.v.v.S.r.] ( ' X.X.5.~.].].].].].].].].].].].].].].].].].].].].].].].].].].~.5.X.X.' J ] c.Y.I.,.M S H.g.7 o {.{.",
"{.{.. > O._.].].'._.'.K._ G L  . .o.c.C.V.H.I.Y.Y.Y.Y.Y.Y.Y.Y.Y.Y.Y.Y.Y.T.Y.Y.Y.Y.I.V.V.V.c.*.| I ' J #.!.].^.x.] $.^.s.5   {.{.",
"{.{.X - G 5.(.].].]._.Y.v.t.i.A.D.r.] H H K } X.X.X.X.X.X.X.X.X.X.X.X.X.X.X.X.X.X...( S S _ 3.A.M.M.K.Q.].!.{ ) 0.^.].a.4   {.{.",
"{.{.X * g P 0.H.I.Y.(._._._._._.'.H._ A A G L  . .| | | | | | |  .| | | | | |  .| L G S S [ H._._.).~.Y.H.<.) ] Q.].W.+.j : {.{.",
"{.{.{.{.i f M K } 5.R.].].].].]._.Y.v.r.e.r.i.i.A.i.M.M.i.A.M.i.i.A.i.M.M.i.M.A.p.i.r.r.n.W.[.].].~.6.} ( ) ;.K.'.J.Q U %.! e % ",
"{.{.{.{.1 u M ( } =.c.J.I.Y.T.Y.(.)._._._._._._._._._._._._._._._._._._._._._._._._._._.Y.Y.Y.Y.Y.M.2.` G ) n.'.].l.n N C.h.r @ ",
"{.{.{.{.@ 9 +.I.Y.c.] ( ' X.X.2.R.].].].].].].].].].].].].].].].].].].].].].].].].].].~.6.X.X.X.X.=.i.S.t.n.^.].].V.V S J.g.7 O ",
"{.{.{.{.  > ~ `.].Q.#.J L | I *.M.Y.Y.Y.Y.Y.Y.Y.Y.Y.Y.Y.Y.Y.Y.Y.Y.Y.T.Y.Y.Y.Y.Y.Y.Y.Y.M.=. .| | | =.T.'._.'.].].Q.<.] #.^.s.5 . ",
"{.{.{.{.  & l $.^.].!.V.M.M.M.y.=.X.X.X.X.X.X.X.X.X.X.X.X.X.X.X.X.X.X.X.X.X.X.X.X.X.X.=.M.D.A.i.i.G.R._.].].].!.[ ) 0.^.].s.5 X ",
"{.{.{.{.5 9 d V &.I.Y.~.(.'.'.T.2. .| | | | | | | | | | I | | | | | | | | | | | | | | =.T.'.'.)._._.).(.Y.I.K.<.) ] Q.].W.^ 5 . ",
"{.{.% q ~ O.l d M J } 6.~.].]._.~.T.A.M.M.M.M.M.i.i.A.i.M.i.A.i.M.M.i.i.M.M.i.A.M.M.i.G.Y._.].].].].].~.6.' J ) ;.H.'.E.W l {.{.",
"{.{.@ r h.J.D f V ( } =.c.V.I.Y.~.~.)._._.).)._._._._._._._._._._._._._._._.)._._._._.)._.(.Y.Y.Y.Y.Y.M.=.` G _ S.'.].j.k , {.{.",
"{.{.o 7 g.!.' P 0.I.Y.c.] ( ' X.X.2.~.].].].].].].].].].].].].].].].].].].].].].].].].].].~.2.X.X.X.X.=.i.S.r.n.`.].].g.r o {.{.",
"{.{.  5 s.).9.o.x.E.].!.#.J '  .| o.M.Y.Y.Y.Y.Y.Y.I.Y.Y.Y.Y.Y.Y.Y.Y.Y.Y.Y.Y.Y.Y.Y.Y.Y.Y.Y.M.=. .| I I 2.P.'.'.'.].].^.~ > X {.{.",
"{.{.X 5 s.]._.x.Y Q E.].!.V.M.A.A.y.*.X.X.X.X.X.X.X.X.X.X.X.X.X.X.X.X.X.X.X.X.X.X.X.X.X.X.=.M.S.M.M.i.S.Y._.'.].].^.$.s - X {.{.",
"{.{.X 5 ^ Q.].C.T C &.B.C.I.`._.'.T.5. .| I | | | | | | | |  .| | | | |  .| | | | | | | | =.T.'._._._._._./.I.H.H.,.V y % X {.{.",
"{.{.{.{.x W E.[.b.@.C n Z { U.].].'.~.I.A.M.i.M.M.i.M.M.i.M.M.i.M.M.i.M.i.A.M.M.M.M.i.M.i.G.R._.'.].].].].I.{ S S M s u {.{.{.{.",
"{.{.{.{., k h.].'.n.Y m V ] 0.J.I.Y.Y.~.)._._._._._._._._._._._._._._._._._.)._._._._._._._._.(.~.I.V.V.V.x.) H ( n u , {.{.{.{.",
"{.{.{.{.+ w g.].].`.b.e.v.0.] ( ' X.X.6.~.].].].].].].].].].].].].].].].].].].].].].].].].].].~.5.' K S S _ f.J.Q.O.7 + {.{.{.{.",
"{.{.{.{.. : E l.[.].'._.'.K.] G L  . .=.M.Y.Y.Y.Y.Y.Y.Y.Y.Y.Y.Y.Y.Y.Y.Y.Y.U.Y.Y.Y.Y.T.I.H.V.B.e.o.L G S S { !.].B.E 4 . {.{.{.{.",
"{.{.{.{.{.{.> c l.].].'._.R.v.r.i.M.D.M.2.X.X.X.X.X.X.X.X.X.X.X.X.X.X.X.X.X.X.X.X.X.X...K Z n Y 4.M.r.m.n.^.].z.c 4 {.{.{.{.{.{.",
"{.{.{.{.{.{.  > E g.j.H./._._._._._.'.T.=.I |  .| | | | | | | | | | | I | | | | | | | I K M n Q n.'.'.(.H.l.g.E >   {.{.{.{.{.{.",
"{.{.{.{.{.{.{.{.: 8 h W J.].].].].]._.P.S.p.A.i.p.A.M.M.M.p.A.M.i.A.A.M.i.A.A.i.A.M.M.i.r.m.k.J.[.].].J.W h 8 : {.{.{.{.{.{.{.{.",
"{.{.{.{.{.{.{.{.  + , l ^ s.a.s.h.C.(._._._._._._._._._._._._._._._._._._._._._._._._._._.(.J.l.d.a.s.^ z , +   {.{.{.{.{.{.{.{.",
"{.{.{.{.{.{.{.{.{.{.{.{.6 4 4 8 h W J.].].].].].].].].].].].].].].].].].].].].].].].].].].J.W k 8 5 4 5 {.{.{.{.{.{.{.{.{.{.{.{.",
"{.{.{.{.{.{.{.{.{.{.{.{.. X   + , z ^ a.a.a.a.a.a.a.a.a.a.a.a.a.a.a.a.a.a.a.a.a.a.a.a.a.s.^ v , + X X X {.{.{.{.{.{.{.{.{.{.{.{.",
"{.{.{.{.{.{.{.{.{.{.{.{.{.{.{.{.{.{.5 5 5 5 5 5 5 5 5 5 5 5 5 5 5 5 5 5 5 5 5 5 5 5 5 5 5 5 {.{.{.{.{.{.{.{.{.{.{.{.{.{.{.{.{.{.",
"{.{.{.{.{.{.{.{.{.{.{.{.{.{.{.{.{.{.X X X X X X X X X X X X X X X X X X X X X X X X X X X X {.{.{.{.{.{.{.{.{.{.{.{.{.{.{.{.{.{.",
"{.{.{.{.{.{.{.{.{.{.{.{.{.{.{.{.{.{.{.{.{.{.{.{.{.{.{.{.{.{.{.{.{.{.{.{.{.{.{.{.{.{.{.{.{.{.{.{.{.{.{.{.{.{.{.{.{.{.{.{.{.{.{.{.",
"{.{.{.{.{.{.{.{.{.{.{.{.{.{.{.{.{.{.{.{.{.{.{.{.{.{.{.{.{.{.{.{.{.{.{.{.{.{.{.{.{.{.{.{.{.{.{.{.{.{.{.{.{.{.{.{.{.{.{.{.{.{.{.{."
};
